<svg xmlns="http://www.w3.org/2000/svg" viewBox="0 0 3369.31 2246.2"><defs><style>.cls-1{fill:#f8f5f0;}.cls-2{fill:#dcdcdc;}.cls-3{fill:#002e6d;}.cls-4{fill:#b6d965;}.cls-5{fill:#ccc;}.cls-6{fill:#999;}.cls-7,.cls-9{fill:#fff;}.cls-8{fill:#f32735;}.cls-9{opacity:0.73;}</style></defs><g id="Capa_2" data-name="Capa 2"><g id="Capa_1-2" data-name="Capa 1"><rect class="cls-1" width="3369.31" height="2246.2"/><polygon class="cls-2" points="602.21 1458.73 619.42 1814 738.07 1797.1 720.18 1441.88 602.21 1458.73"/><polygon class="cls-2" points="1584.88 1256.19 1944.28 1164.98 1976.84 1307.85 1611.84 1401.44 1584.88 1256.19"/><polygon class="cls-3" points="73.93 682.48 63.45 726.09 69.58 876.36 72.03 936.51 76.93 1057.02 105.63 1077.63 107.79 1189.8 18.53 1123.1 15.17 917.16 14.2 857.52 11.79 710.36 18.6 666.02 23.77 632.41 57.84 410.51 43.61 305.17 40.55 282.53 27.52 186 38.47 136.02 48.09 92.13 68.28 0 221.93 0 163.8 115.13 142.79 156.75 121.86 198.23 133.85 229.67 142.11 251.34 163.83 308.29 81.81 649.67 73.93 682.48"/><polygon class="cls-4" points="1024.27 1399.38 1036.06 1575.71 1207.9 1547.88 1112.94 1380.73 1024.27 1399.38"/><polygon class="cls-4" points="1877.61 946.63 1936.2 1162.9 2417.53 1041.43 2360.8 888.33 1877.61 946.63"/><polygon class="cls-2" points="2559.74 1462.09 2360.8 888.33 2876.37 830.96 3013 941.44 2624.45 987.9 2767.65 1412.43 2559.74 1462.09"/><polygon class="cls-4" points="2889.48 532.16 3086.94 514.22 3074.57 703.24 2885.81 665.44 2889.48 532.16"/><polygon class="cls-4" points="405.19 186 530.14 350.47 427.34 533.88 605.62 635.02 679.48 533.88 754.1 252.99 405.19 186"/><polygon class="cls-4" points="249.35 2246.2 0 2246.2 0 2046.53 138.84 2079.89 149.05 2095.26 249.35 2246.2"/><polygon class="cls-4" points="3369.31 1010.33 3369.31 1207.62 3025.45 944.87 3016.45 937.99 3028.36 925.9 3215.63 735.73 3369.31 1010.33"/><polygon class="cls-4" points="2483.25 145.33 2703.64 141.89 2685.72 450.19 2455.59 477.51 2483.25 145.33"/><polygon class="cls-4" points="2850.99 1795.96 2685.72 1716.66 2438.56 1788.98 2499.1 1895.45 2547.32 2043.46 2511.26 2246.2 3165.77 2246.2 2850.99 1795.96"/><polygon class="cls-3" points="3369.31 1772 3369.31 2246.2 3165.77 2246.2 2914.11 1886.25 2890.56 1852.56 2850.99 1795.96 2685.72 1716.66 2449.64 1785.74 2449.63 1785.74 2438.56 1788.98 2427.48 1792.22 2347.84 1815.52 1996.69 1851.81 1764.58 1901.88 1719.65 1911.57 1581.89 1941.28 1346.04 1916.57 1293.72 1919.7 1259.96 1921.72 1158.1 1927.81 1146.13 1968.24 1075.68 1974.99 1019.76 1980.35 965.43 1985.56 943.06 1987.7 914.77 1990.42 800.84 1896.36 349.47 1955.51 0 1892.9 0 1795.4 347.22 1880.63 427.34 1882.13 563.61 1855.93 639.23 1855.93 899.04 1803.52 917.96 1807.01 941.23 1811.31 999.99 1822.15 1057.92 1832.85 1083.23 1837.52 1262.95 1811.1 1296.79 1806.13 1433.64 1786.02 1649.28 1824.48 1719.65 1839.63 1764.58 1849.31 1804.02 1857.81 2100.76 1786.02 2383.72 1715.26 2383.72 1715.26 2406.34 1709.6 2611.62 1658.26 2975.1 1522.37 2967.09 1740.03 3369.31 1772"/><polygon class="cls-3" points="485.67 1837.52 374.55 1855.93 0 1768.14 0 1696.31 142.79 1548.94 133.85 1084.41 156.8 1109.56 274.6 1238.68 280.21 1372.06 456.39 1384.59 471.25 1385.64 485.67 1837.52"/><rect class="cls-5" x="2176.14" y="260.11" width="430.49" height="5.62" transform="translate(1942.05 2626.38) rotate(-85.51)"/><rect class="cls-5" x="2037.49" y="266.09" width="442.52" height="5.62" transform="translate(1811.2 2499.13) rotate(-85.44)"/><polygon class="cls-5" points="3278.05 85.48 3271.49 221.55 3369.31 218.99 3369.31 224.62 3271.22 227.18 3268.27 288.28 3325.17 360.35 3340.53 379.82 3336.12 383.29 3318.56 361.05 3262.57 290.11 3262.62 289.06 3265.59 227.33 3155.66 230.21 3151.16 230.33 3128.64 230.91 3124.14 231.03 3124.14 231.03 2913.19 236.55 2896.49 236.99 2896.34 231.38 2913.4 230.93 3124.4 225.41 3128.91 225.29 3151.42 224.7 3155.92 224.58 3265.86 221.7 3272.43 85.6 3162.24 87.87 3157.74 87.96 3135.24 88.42 3130.73 88.51 2918.55 92.88 2901.84 93.22 2901.72 87.6 2918.76 87.25 3130.99 82.89 3135.49 82.8 3158 82.33 3162.5 82.24 3272.7 79.98 3276.55 0 3282.18 0 3278.33 79.86 3369.31 77.99 3369.31 83.61 3278.05 85.48"/><polygon class="cls-5" points="1739.38 173.41 1735.03 176.96 1725.24 164.92 1591.08 0 1598.31 0 1732.01 164.35 1739.38 173.41"/><polygon class="cls-5" points="1051.44 0 995.71 26.67 811.89 114.64 791.45 124.42 789.03 119.36 802.63 112.85 999.55 18.6 1038.43 0 1051.44 0"/><polygon class="cls-5" points="312.72 1186 194.14 716.54 188.69 717.91 308.35 1191.61 372.54 1191.61 464.05 1357.57 468.96 1354.86 375.86 1186 312.72 1186"/><polygon class="cls-5" points="2104.94 1866.61 2105.57 1872.19 2323.37 1847.66 2377.44 1918.28 2381.9 1914.87 2325.9 1841.73 2104.94 1866.61"/><polygon class="cls-5" points="2780.14 2020.27 2635.4 2076.9 2549.01 2046.13 2545.89 2051.52 2545.89 2051.53 2432.79 2246.2 2426.3 2246.2 2546.15 2039.88 2546.5 2039.28 2635.31 2070.91 2778.09 2015.04 2780.14 2020.27"/><rect class="cls-5" x="1999.44" y="1359.66" width="508.94" height="5.62" transform="translate(-282.39 652.81) rotate(-15.52)"/><rect class="cls-5" x="1983.98" y="1302.56" width="509.13" height="5.62" transform="translate(-263.75 631.89) rotate(-15.18)"/><rect class="cls-5" x="2521.32" y="1341.48" width="218.01" height="5.62" transform="translate(-255.71 714.61) rotate(-14.76)"/><rect class="cls-5" x="1564.78" y="1129.3" width="356.71" height="5.62" transform="translate(-219.44 447.66) rotate(-13.78)"/><polygon class="cls-5" points="1011.62 941.09 925.75 821.04 921.18 824.31 1006.84 944.05 901.17 1108.67 905.9 1111.7 1011.81 946.7 1168.03 939.03 1204.31 1101.87 1209.79 1100.65 1172.48 933.18 1011.62 941.09"/><polygon class="cls-5" points="869.2 901.03 655.39 817.55 608.34 634.32 602.9 635.72 650.67 821.74 867.15 906.26 869.2 901.03"/><rect class="cls-5" x="746.81" y="1700.79" width="250.3" height="5.62" transform="translate(-893.78 965.55) rotate(-40.21)"/><polygon class="cls-5" points="2819.38 966.16 2895.67 1199.11 2827.74 1396.53 2833.05 1398.36 2901.29 1200.04 2901.6 1199.15 2824.71 964.41 2819.38 966.16"/><polygon class="cls-6" points="3369.31 1342.17 3369.31 1354.53 3200.85 1350.34 3186.12 1279.61 3022.25 1254.08 3007.32 1251.75 3009.23 1239.55 3023.22 1241.73 3196.47 1268.71 3210.94 1338.23 3369.31 1342.17"/><rect class="cls-5" x="1935.87" y="682.05" width="952.67" height="5.62" transform="translate(-59.36 261.6) rotate(-6.13)"/><rect class="cls-5" x="1912.33" y="795.87" width="416.91" height="5.62" transform="translate(-71.95 226.39) rotate(-6.01)"/><rect class="cls-5" x="1640.76" y="798.87" width="5.62" height="199.11" transform="translate(-224.28 758.35) rotate(-24.37)"/><rect class="cls-5" x="955.61" y="203.13" width="5.62" height="501.65" transform="translate(315.35 1297.24) rotate(-78.02)"/><rect class="cls-5" x="1626.7" y="184.41" width="5.62" height="203.33" transform="translate(-23.9 228.09) rotate(-7.95)"/><rect class="cls-5" x="1679.49" y="1545.07" width="354.66" height="5.62" transform="translate(-316.66 489.73) rotate(-13.86)"/><polygon class="cls-6" points="2234.24 1536.8 1689.47 1675.75 1686.41 1663.78 2242.84 1521.86 2291.2 1691.76 2279.32 1695.15 2234.24 1536.8"/><polygon class="cls-5" points="3166.3 0 3162.5 82.24 3162.24 87.87 3155.92 224.58 3155.66 230.21 3148.78 378.91 3147.41 408.48 3116 407.02 3117.15 382.23 3124.14 231.03 3124.14 231.03 3124.4 225.41 3130.73 88.51 3130.99 82.89 3134.82 0 3166.3 0"/><polygon class="cls-7" points="3161.81 0 3158 82.33 3157.74 87.96 3151.42 224.7 3151.16 230.33 3144.26 379.38 3143.14 403.78 3120.7 402.74 3121.67 381.76 3128.64 230.91 3128.91 225.29 3135.24 88.42 3135.49 82.8 3139.32 0 3161.81 0"/><polygon class="cls-7" points="1425.36 2043.04 1424.86 2059.97 1419.39 2246.2 1396.92 2246.2 1402.41 2059.12 1402.91 2042.38 1425.36 2043.04"/><polygon class="cls-7" points="1838.66 2156.39 1820.91 2165.67 1666.85 2246.2 1618.36 2246.2 1804.27 2149.02 1828.25 2136.49 1838.66 2156.39"/><polygon class="cls-7" points="2512.03 1895.48 2503.79 1909.85 2502.59 1911.93 2330.05 2212.77 2421.25 2246.2 2356 2246.2 2318.71 2232.54 2310.87 2246.2 2284.98 2246.2 2297.32 2224.7 2105.57 2154.4 2099.18 1997 2097.8 1962.86 2094.56 1882.97 1764.58 1948.28 1744.3 1952.3 1739.94 1930.26 1764.58 1925.38 2115.95 1855.84 2116.33 1865.33 2116.56 1870.96 2120.1 1958.16 2121.48 1992.3 2127.4 2138.48 2308.65 2204.92 2473.14 1918.15 2486.17 1895.43 2478.82 1882.52 2427.48 1792.22 2383.72 1715.26 2383.72 1715.26 2370.51 1692.02 2370.5 1692.02 2360.54 1674.48 2380.06 1663.38 2390.16 1681.13 2406.34 1709.6 2449.63 1785.74 2449.64 1785.74 2501.89 1877.65 2512.03 1895.48"/><path class="cls-7" d="M2889.16,543.5l12.63-1.4,184.67-20.42,282.85-31.28V467.8l-466.68,51.61-33.86,3.74-371.46,41.09-23-69.22L2468,476l-1-3,1.9-22.63,24.84-295.55,198-.84-16,274.64-1.21,20.88,11.21.66,11.21.65,1.43-24.57,15.83-272.35,168.39-.72,20.85-.09-.1-22.46-19.91.09-167.93.71,4.18-71.89h183.68V37.11H2721L2723.13,0h-22.5l-2.15,37.11H2503.62L2506.74,0h-22.55l-3.11,37.11h-116.7L2367.71,0h-22.55l-3.33,37.11H2032.7V59.57h307.1l-6.61,73.52-60.81.26-5.64,0-132.27.57-21.24.09-.14-1.61-21.1,1.77-360,30.16-6.77.57L1561.4,178.64l-11-111L1528,69.81l11,110.71L1295,201l-25.42,2.13-20.22-3.91L998.82,150.77l-57-11-130-25.12-9.26-1.79-369-71.32-21.85-4.22-4.7-.91L386.39,51,266.84,135.61l-50.55,35.75-82.44,58.31L57.9,283.4l-17.34-.87L0,280.48V303l43.61,2.2,20.91,1.05,77.59-54.88,104.55-74,50.54-35.75,83.73-59.23,31.3-22.14,17.56,3.39,346.4,67L748.43,231.31,743,250.87l-6.58,23.86L666.36,529l-64.07,91.21L442.8,529.73,546.67,352.89,432.82,214.39,410.29,187l-15.56-18.93-17.36,14.27,26.23,31.91L519.36,355,411.88,538,589.31,638.68l-59.62,84.87L240.6,559l-24.84-14.14-11.11,19.53,22.81,13L516.72,742l-70,99.69-11.27,16,.66,16.65,5.12,128.46,2.39,60.14,10.55,265,.5,12.53h0l1.75,44.08,17.66,443.47-99.14,16.42L0,1757.73v23l372,86.09,2.18.5,2.19-.36,537.53-89,4,29,25.1,180.7,5.17,37.26,1.7,12.24-15.84,24.24L813.35,2246.2h26.84l124-189.72L971,2046l2.3-3.53-2.94-21.14-5-35.75-24.21-174.25-5.14-37,56.74-9.4h0l55.45-9.18,217.14-36,19.07-3.16-3.67-22.16-14.79,2.45-220.55,36.53L990,1742.59l-198.81,32.93h0l-10.83,1.8h0l-33.23,5.5-15.95-332.35,60.26-8.43,64.15-9,156.57-21.9,13,177.3,177.14-28,13.38-2.12-3.51-22.19-10.11,1.6-12.63,2-143.66,22.76-11.34-154.41,67.37-9.43,13.33-1.86-2.24-16h0l-.86-6.2-23.18,3.24-249.17,34.86-64.16,9L482,1462.65l-3.85-96.76,228.64-32.82,64-9.19,261.37-37.53,13.33-1.91-3.19-22.24-23.08,3.32-164.36,23.59-11.55-127.29L664.33,1187l-64.12,9-128.13,18-5.7-143.24L464,1010.61h0l-4.92-123.26-.91-22.91,8.2-11.66L607.17,652.34l4.24-6,70-99.68,59.67,14.77,55.65,13.77L906.6,602.34,803,791.37l103,37-46.93,68.74-3.26,4.76-84,123-9,13.16,18.55,12.66,10.08-14.76L928.73,834.87l3.38-4.94L940.93,817l-105.61-37.9,93.84-171.19L1146,661.56l21,5.19.58.15,5.4-21.8-1.5-.37-20.56-5.09L806.61,554.46,751,540.69l-60.41-14.94,32.76-118.82,1.49-5.42,33.74-122.39,12-43.42,27.79-100.81,133.58,25.82h0l57,11,255.6,49.4,22.38,4.32,1.53.3,21.49-1.8,324.35-27.18,5.61-.46,107.54-9L1748.77,365l-104,10.33-5.59.56h0l-128.56,12.78-20.28,2,1.05,10.56,1.17,11.8,2.87-.29,22.86-2.27,233.14-23.18,16.48,136.82,2.71,22.47,22.3-2.69-2.66-22.13L1773.82,385.1l87-8.65,15.52,136.29,2.55,22.41,22.31-2.54-2.53-22.23-15.5-136.15,149.33-14.85,22.66-2.25L2053,334.78l-13.55,1.35-158.76,15.78-20-175.8,231.94-19.43,2.28-.19v.08l11.67,0L2117.86,190l97.06,287.13,14.75,43.62,23.81,70.45-263.12,29.1-22.86,2.53-1.88.21-13,6.18L1603.5,794.83l-203.56,96.58-17.72,8.4,5.2,11,4.43,9.31,26.55-12.59,186.18-88.33,5.08-2.41L1944,658.15l27.84-13.2,11.59-1.28L2260.84,613l27.83,82.32,1.84,5.45,25.21,74.57,1.85,5.46,31.09,92,5.53,16.36,5.51,16.29L2403,1033.58l-452.67,117.09L1934,1154.9l-16.31,4.21-313.83,81.18-36.79,9.52,5.62,21.74,14.32-3.7,22.83-5.9,313.73-81.16,22.93-5.93,9.69-2.5,454-117.45,39.13,115.77-460.9,120.72-14.52,3.8-18.07,4.73L1643,1381.87l-21.59,5.65-2.09.55-8.8,6.51-8.81,6.53-153,113.24-31.43-162.26-151-247.44-11.16-18.28-19.17,11.7,7.32,12L1396,1360.34l33.45,172.6-27.67,71.87,21,8.07,27.66-71.83,157.72-116.74,21.08-15.61,19.78-5.18,312.73-81.9,32.59-8.54L2456.58,1192l15.87,47,1.81,5.33,16.7,49.42,1.8,5.33,50.11,148.2,6.23,18.44,10.63-3.6,10.65-3.6-6.89-20.39-22.76-67.3-1.8-5.33-60.56-179.16,186-48.72L2724,1316.71l1.78,5.34,23.82,71.61,7.11,21.39.31.92,10.62-3.53h0l10.65-3.54-6.81-20.47-47.15-141.74,166.84-34.54h0l6.4-1.32,107.26-22.21-11.5,146.81-1.56,19.92-.78,26.83L2981,1727l388.34,33.18v-22.55L3004,1706.37l9.19-316.13,1-33.42,1.5-19.12,6.55-83.62,1-12.35,6.36-81.18-131.7,27.27-5.53,1.14-175.15,36.26L2641.29,997l181.48-20.53,5.69-.64,182.75-20.67,4.43-.5,9.81-9.82,12-12L3217.7,752.58l151.61,283.91V988.8L3234.3,736l135-135V569.17L3216.83,721.68l-141.52-29.76-177.72-37.38-11.41-2.39-3.44-.73-4.62,22,18.62,3.91,301.13,63.33L3019.46,919.09l-14.15,14.16-2.14.24-17.73,2L2634,975.25l-32.48-97.65-5.16-15.49-5.71-17.17L2534,674.6l-1.82-5.46L2504.56,586l363.37-40.19ZM708.88,1453.6l16,332.92-95.67,15.85-14.44-335.61Zm-116.47,16.29,14.46,336.17-110.49,18.3-13.5-339.15Zm23.7-253.47,64.12-9L823,1187.34l9.52,105-77.67,11.15-64,9.19-213.67,30.68L473,1236.54Zm1155-853.62-21.38-177.4,88.5-7.41,20.06,176.14Zm730.6-303.23h195.44l-4.18,72-197.38.85Zm-139.37,0h116.83l-6.13,72.92-68.65.29-5.63,0-43,.18Zm-109.8,458.77-9.72-28.75-3.65-10.81v0l-1.38-4L2130.22,156.41l134.73-.57,5.63,0,60.59-.26-28.09,312.3-1.85,20.59,22.37,2,2.25-25,27.89-310,43.27-.19,5.64,0,68.52-.29-25,297.85-1.73,20.64-.19,2.31,7.2,21.66,23.07,69.34-198.14,21.91Zm404.72,597.89L2471.16,1165,2432,1049.27l186.88-48.33ZM2509.36,671.6l1.82,5.45,56.72,170.51,5.68,17.09,5.19,15.58,33,99.34-187,48.37-42.3-125.15L2377,886.53l-5.53-16.39L2313.4,698.29l-1.84-5.44-27.86-82.39,198-21.9Z"/><polygon class="cls-7" points="766.3 2072.34 744.06 2075.47 741.75 2059.05 726.97 1953.79 341.63 2001.78 339.9 2001.45 0 1937.23 0 1914.38 342.34 1979.06 746.14 1928.77 763.92 2055.39 766.3 2072.34"/><polygon class="cls-2" points="1109.59 2246.2 1052.99 2246.2 1027.96 2045.95 1023.78 2012.5 1019.76 1980.35 999.99 1822.15 992.83 1764.9 992.83 1764.9 990.04 1742.59 983.33 1688.87 947.8 1643.15 944.35 1638.72 791.48 1442.04 775.58 1421.58 706.77 1333.07 690.9 1312.65 616.11 1216.42 600.21 1195.97 516 1087.63 466.38 1070.74 443.59 1062.99 266.42 1002.68 260.09 1000.53 154 964.42 108.77 949.02 72.03 936.51 15.17 917.16 0 912 0 852.68 14.2 857.52 69.58 876.36 107.63 889.32 152.85 904.71 243.69 935.63 250.03 937.78 441.2 1002.85 463.99 1010.61 463.99 1010.61 518.41 1029.13 559.09 943.69 573.61 913.19 638.93 776.01 642.69 768.1 741.11 561.39 750.97 540.7 806.27 424.54 808.76 419.33 865.4 300.36 885.32 258.52 931.89 160.71 931.89 160.71 941.87 139.76 995.71 26.67 999.55 18.6 1008.41 0 1070.61 0 998.82 150.76 988.85 171.72 942.14 269.81 922.22 311.65 865.24 431.32 862.76 436.53 806.61 554.46 796.76 575.16 677.27 826.1 674.85 831.18 622.65 940.82 608.13 971.32 565.81 1060.2 664.33 1186.96 680.23 1207.41 754.89 1303.46 770.76 1323.88 839.73 1412.62 855.63 1433.07 1037.13 1666.59 1045.48 1733.41 1048.28 1755.72 1057.92 1832.85 1075.68 1974.99 1080.47 2013.25 1084.7 2047.12 1109.59 2246.2"/><path class="cls-8" d="M2025.68,1428.77l-1.46-5.42-14.36-53-1.47-5.42-14.05-51.86-5.87-21.68-32.25-119-9.69,2.5-22.93,5.93,32.28,119.14,3.36,12.44,2.51,9.25,50.15,185.11,1.47,5.43,17.29,63.82,32.65-8.33Zm547.9-564.12-5.68-17.09-196.41,22.58-22.83,2.63-448.38,51.55,30.47-102.81,1.72-5.83,23.41-79,1.72-5.83,25.84-87.19,6.92-23.37-22.86,2.53-1.88.21-13,6.18L1944,658.15,1863.52,929.8l-183.17,43-5.57,1.31L1533,1007.42,1418.4,907.51l-8.56-7.47-9.9-8.63-217-189.2,72.5-324.34,219.1,43.55,60.6,172.38,84.94-8.94,2.12-26.9-74.5,3.82-52.24-149-2.87.29-1.17-11.8-4.25-12.11L1232.23,346l-31.84,156.5-1.11,5.51-18.09-3.84L1150.9,639.64l-4.9,21.92-12.73,57,345.87,301.55-273,64.12-5.46,1.28-226.75,53.25-62.68-35.31-4.9-2.77-114.87-64.71-19.64-11.06-149.17-84-49-27.63L466.36,852.78l-8.2,11.66.91,22.91,100,56.34,49,27.62,351.21,197.86,59.85,96.35,12.94,20.83,56.77,91.41,4.41,7.1,8.55,13.77,87.63,141.08,6.3,10.13,6.57,10.58,64.56,103.93-.89,32.53-.61,22.87L1263,1811.1l33.84-5,4.08-151L998.06,1167.64l245.25-57.58,23-5.41,238-55.89,97.43,352.35,8.81-6.53,8.8-6.51,2.09-.55,21.59-5.65L1609.87,1262l-3.12-11.31-2.86-10.35-18.43-66.64-1.5-5.41-35.88-129.75,316.81-74.4,34.37,126.85,1.46,5.42,17,62.75,16.31-4.21,2.17,8,16.34-4.12-2.19-8.11-52.08-192.2,461.43-53.05,6.76-.78-5.65-16.31,16.21-1.8ZM410.29,187l-5.1-1,20.49,27,7.14,1.42ZM2242.84,489.59l-3.65-10.81v0l.34-4.22-1.72.18-22.89,2.41,14.75,43.62,22.89-2.41Zm-217.16,939.18-1.46-5.42-14.36-53-1.47-5.42-14.05-51.86-5.87-21.68-32.25-119-9.69,2.5-22.93,5.93,32.28,119.14,3.36,12.44,2.51,9.25,50.15,185.11,1.47,5.43,17.29,63.82,32.65-8.33Zm547.9-564.12-5.68-17.09-196.41,22.58-22.83,2.63-448.38,51.55,30.47-102.81,1.72-5.83,23.41-79,1.72-5.83,25.84-87.19,6.92-23.37-22.86,2.53-1.88.21-13,6.18L1944,658.15,1863.52,929.8l-183.17,43-5.57,1.31L1533,1007.42,1418.4,907.51l-8.56-7.47-9.9-8.63-217-189.2,72.5-324.34,219.1,43.55,60.6,172.38,84.94-8.94,2.12-26.9-74.5,3.82-52.24-149-2.87.29-1.17-11.8-4.25-12.11L1232.23,346l-31.84,156.5-1.11,5.51-18.09-3.84L1150.9,639.64l-4.9,21.92-12.73,57,345.87,301.55-273,64.12-5.46,1.28-226.75,53.25-62.68-35.31-4.9-2.77-114.87-64.71-19.64-11.06-149.17-84-49-27.63L466.36,852.78l-8.2,11.66.91,22.91,100,56.34,49,27.62,351.21,197.86,59.85,96.35,12.94,20.83,56.77,91.41,4.41,7.1,8.55,13.77,87.63,141.08,6.3,10.13,6.57,10.58,64.56,103.93-.89,32.53-.61,22.87L1263,1811.1l33.84-5,4.08-151L998.06,1167.64l245.25-57.58,23-5.41,238-55.89,97.43,352.35,8.81-6.53,8.8-6.51,2.09-.55,21.59-5.65L1609.87,1262l-3.12-11.31-2.86-10.35-18.43-66.64-1.5-5.41-35.88-129.75,316.81-74.4,34.37,126.85,1.46,5.42,17,62.75,16.31-4.21,2.17,8,16.34-4.12-2.19-8.11-52.08-192.2,461.43-53.05,6.76-.78-5.65-16.31,16.21-1.8ZM410.29,187l-5.1-1,20.49,27,7.14,1.42ZM2242.84,489.59l-3.65-10.81v0l.34-4.22-1.72.18-22.89,2.41,14.75,43.62,22.89-2.41Zm-217.16,939.18-1.46-5.42-14.36-53-1.47-5.42-14.05-51.86-5.87-21.68-32.25-119-9.69,2.5-22.93,5.93,32.28,119.14,3.36,12.44,2.51,9.25,50.15,185.11,1.47,5.43,17.29,63.82,32.65-8.33Zm547.9-564.12-5.68-17.09-196.41,22.58-22.83,2.63-448.38,51.55,30.47-102.81,1.72-5.83,23.41-79,1.72-5.83,25.84-87.19,6.92-23.37-22.86,2.53-1.88.21-13,6.18L1944,658.15,1863.52,929.8l-183.17,43-5.57,1.31L1533,1007.42,1418.4,907.51l-8.56-7.47-9.9-8.63-217-189.2,72.5-324.34,219.1,43.55,60.6,172.38,84.94-8.94,2.12-26.9-74.5,3.82-52.24-149-2.87.29-1.17-11.8-4.25-12.11L1232.23,346l-31.84,156.5-1.11,5.51-18.09-3.84L1150.9,639.64l-4.9,21.92-12.73,57,345.87,301.55-273,64.12-5.46,1.28-226.75,53.25-62.68-35.31-4.9-2.77-114.87-64.71-19.64-11.06-149.17-84-49-27.63L466.36,852.78l-8.2,11.66.91,22.91,100,56.34,49,27.62,351.21,197.86,59.85,96.35,12.94,20.83,56.77,91.41,4.41,7.1,8.55,13.77,87.63,141.08,6.3,10.13,6.57,10.58,64.56,103.93-.89,32.53-.61,22.87L1263,1811.1l33.84-5,4.08-151L998.06,1167.64l245.25-57.58,23-5.41,238-55.89,97.43,352.35,8.81-6.53,8.8-6.51,2.09-.55,21.59-5.65L1609.87,1262l-3.12-11.31-2.86-10.35-18.43-66.64-1.5-5.41-35.88-129.75,316.81-74.4,34.37,126.85,1.46,5.42,17,62.75,16.31-4.21,2.17,8,16.34-4.12-2.19-8.11-52.08-192.2,461.43-53.05,6.76-.78-5.65-16.31,16.21-1.8ZM410.29,187l-5.1-1,20.49,27,7.14,1.42ZM2242.84,489.59l-3.65-10.81v0l.34-4.22-1.72.18-22.89,2.41,14.75,43.62,22.89-2.41ZM2897.1,667.7h0l.49-13.16,4.2-112.44.41-11.09.43-11.6,2.6-69.72,464.08-48.81V355.71l-44.14,4.64-6.61.7-169.78,17.86-4.52.47-22.59,2.38-4.52.47-210.23,22.11,6.27-167.79.21-5.62,5.15-138.06.21-5.62L2922,0H2888.3l-1.38,37.11-.85,22.46-2.65,71.18-.84,22.46-9.51,254.69-174.71,18.38L2687,427.47l-11.32,1.19-206.84,21.75-11.13,1.18-11.62,1.22-67.4,7.09-5.68.59-47.2,5-22.77,2.4-57.87,6.08-5.68.6-1.72.18-22.89,2.41-188,19.77L2117.86,190l16.61-56.06,1-3.23-68.52-71.14-21.63-22.46L2009.54,0h-46.78L2092,134.19l5.55,5.77-4.95,16.72-53.17,179.45-6.89,23.25-41.88,141.33-92,9.67-22.33,2.36-86.08,9-22.35,2.35-202.2,21.27L1518.32,410.5l-7.67-21.81-2.23-6.34L1265.25,334l24.6-110.08,5.14-23L1339.91,0h-46l-44.53,199.19-4.9,21.93-23.28,104.14-279-55.45-56.82-11.29L770.52,235.7l-22.09-4.39L412.25,164.5,429.79,63.66l3.85-22.13L440.86,0h-45.6l-8.87,51-5.46,31.37-12.75,73.34-71-14.11-30.36-6-103-20.48-115.71-23L0,82.58v45.8L38.47,136l104.32,20.73,73.5,14.61,30.37,6L360.48,200l-26.27,151L113.66,659.15l-31.85-9.47-58-17.27L0,625.34v35.15L18.6,666l55.33,16.46,29.88,8.89,3.82,198,1.14,59.7,11.39,591.22L0,1668.22v65.63l165.42-176.2-8.62-448.09L154,964.42l-1.16-59.71-3.69-192,44.58,25.12h0l6.74,3.8,235.6,132.72,23,13,100,56.34,49,27.62,351.21,197.86,59.85,96.35,12.94,20.83,56.77,91.41,4.41,7.1,8.55,13.77,87.63,141.08,6.3,10.13,6.57,10.58,64.56,103.93-.89,32.53-.61,22.87L1263,1811.1l-3,110.62-2.65,98.21-176.84-6.68-49.83-1.88-6.86,1.13-53.38,8.81L948.23,2025l-184.31,30.42-22.17,3.66-343.9,56.76L0,2027.78v34.51l149.05,33,244.7,54.14,3.18.71,537.16-88.66,30.08-5L1028,2046l4.81-.79,51.93,2,171.7,6.49-5.21,192.59h33.71l5.17-191.32,112.34,4.24,22.45.85,301.76,11.4,77.65,77.65,16.64,16.65,80.53,80.53H1965l-182.41-182.42L2099.18,1997l22.3-4.7,351.66-74.15,29.45-6.21,1.76-.38,120-25.31h744.92v-33.69H2620.87l-1.72.36-117.25,24.73-11.54,2.43-11.54,2.44-104.77,22.09-6.1,1.28-247.85,52.27-22.3,4.7-333.22,70.27V1842.06l605.92-150h0l12.55-3.11,7.1-7.78,181.51-198.79L2991,1382.17l7.59-1.81,14.63,9.88,356.08,240.53v-54.21L3015.7,1337.7l-8.32-5.63-14,3.35-151.06,36.08-6.47,1.55-64.33,15.37-11,2.64-10.87,2.6-186.08,44.44-11.15,2.67-4.54,1.08-4.93,5.4-183.82,201.32-74.86,18.54-12,3-169.74,42-35.91-132.53-3.23-11.93-37.63-138.88-1.46-5.42-14.36-53-1.47-5.42-14.05-51.86-5.87-21.68-32.25-119-3.68-13.58-2.19-8.11-52.08-192.2,461.43-53.05,6.76-.78.37,0,15.7-1.8,196.24-22.56,22.79-2.63,267.82-30.79,116.06,88.68,10.45,8,15.32,11.71,358.1,273.63v-42.4L3037.47,932.85l-9.11-7-8.9-6.81-128.1-97.88,5.38-143.89Zm-884-124.17,216.56-22.78,22.89-2.41,198.85-20.92,22.88-2.4,397.09-41.77-2.61,69.9-.84,22.69-3.27,87.6-.22,5.67-6.53,175.11-267.22,30.72-22.79,2.62-196.41,22.58-22.83,2.63-448.38,51.55,30.47-102.81,1.72-5.83,23.41-79,1.72-5.83,25.84-87.19,6.92-23.37Zm-36.27,3.81-24.27,81.88L1944,658.15,1863.52,929.8l-183.17,43-5.57,1.31L1533,1007.42,1418.4,907.51l-8.56-7.47-9.9-8.63-217-189.2,72.5-324.34,219.1,43.55,60.6,172.38,84.94-8.94ZM911.23,1103.4l-4.9-2.77-114.87-64.71-19.64-11.06-149.17-84-49-27.63L466.36,852.78,446.69,841.7l-291.07-164,71.84-100.36L240.6,559,376.71,368.85,403.6,214.23l.95-5.46,21.13,4.2,7.14,1.42,303.64,60.34L747.73,277l10.82,2.15L865.4,300.36l56.82,11.3,289.15,57.46-29,129.52-1.22,5.48L1150.9,639.64l-4.9,21.92-12.73,57,345.87,301.55-273,64.12-5.46,1.28-226.75,53.25Zm808.42,934L1291,2021.2l2.74-101.5,3.07-113.57,4.08-151L998.06,1167.64l245.25-57.58,23-5.41,238-55.89,97.43,352.35,6.41,23.2,111.49,403.22Zm292.25-530.66,1.47,5.43,17.29,63.82,3.23,11.92,35.85,132.32-311.8,77.2-35.94-130-3.29-11.91-18.3-66.18h0l-1.5-5.41L1649,1403.52l-3-10.84-3-10.81L1609.87,1262l-3.12-11.31-2.86-10.35-18.43-66.64-1.5-5.41-35.88-129.75,316.81-74.4,34.37,126.85,1.46,5.42,17,62.75,3.2,11.8,2.68,9.88,32.28,119.14,3.36,12.44,2.51,9.25ZM2242.84,489.59l-3.65-10.81v0l.34-4.22-1.72.18-22.89,2.41,14.75,43.62,22.89-2.41ZM410.29,187l-5.1-1,20.49,27,7.14,1.42ZM2573.58,864.65l-5.68-17.09-196.41,22.58-22.83,2.63-448.38,51.55,30.47-102.81,1.72-5.83,23.41-79,1.72-5.83,25.84-87.19,6.92-23.37-22.86,2.53-1.88.21-13,6.18L1944,658.15,1863.52,929.8l-183.17,43-5.57,1.31L1533,1007.42,1418.4,907.51l-8.56-7.47-9.9-8.63-217-189.2,72.5-324.34,219.1,43.55,60.6,172.38,84.94-8.94,2.12-26.9-74.5,3.82-52.24-149-2.87.29-1.17-11.8-4.25-12.11L1232.23,346l-31.84,156.5-1.11,5.51-18.09-3.84L1150.9,639.64l-4.9,21.92-12.73,57,345.87,301.55-273,64.12-5.46,1.28-226.75,53.25-62.68-35.31-4.9-2.77-114.87-64.71-19.64-11.06-149.17-84-49-27.63L466.36,852.78l-8.2,11.66.91,22.91,100,56.34,49,27.62,351.21,197.86,59.85,96.35,12.94,20.83,56.77,91.41,4.41,7.1,8.55,13.77,87.63,141.08,6.3,10.13,6.57,10.58,64.56,103.93-.89,32.53-.61,22.87L1263,1811.1l33.84-5,4.08-151L998.06,1167.64l245.25-57.58,23-5.41,238-55.89,97.43,352.35,8.81-6.53,8.8-6.51,2.09-.55,21.59-5.65L1609.87,1262l-3.12-11.31-2.86-10.35-18.43-66.64-1.5-5.41-35.88-129.75,316.81-74.4,34.37,126.85,1.46,5.42,17,62.75,16.31-4.21,2.17,8,16.34-4.12-2.19-8.11-52.08-192.2,461.43-53.05,6.76-.78-5.65-16.31,16.21-1.8Zm-547.9,564.12-1.46-5.42-14.36-53-1.47-5.42-14.05-51.86-5.87-21.68-32.25-119-9.69,2.5-22.93,5.93,32.28,119.14,3.36,12.44,2.51,9.25,50.15,185.11,1.47,5.43,17.29,63.82,32.65-8.33Zm217.16-939.18-3.65-10.81v0l.34-4.22-1.72.18-22.89,2.41,14.75,43.62,22.89-2.41ZM410.29,187l-5.1-1,20.49,27,7.14,1.42ZM2573.58,864.65l-5.68-17.09-196.41,22.58-22.83,2.63-448.38,51.55,30.47-102.81,1.72-5.83,23.41-79,1.72-5.83,25.84-87.19,6.92-23.37-22.86,2.53-1.88.21-13,6.18L1944,658.15,1863.52,929.8l-183.17,43-5.57,1.31L1533,1007.42,1418.4,907.51l-8.56-7.47-9.9-8.63-217-189.2,72.5-324.34,219.1,43.55,60.6,172.38,84.94-8.94,2.12-26.9-74.5,3.82-52.24-149-2.87.29-1.17-11.8-4.25-12.11L1232.23,346l-31.84,156.5-1.11,5.51-18.09-3.84L1150.9,639.64l-4.9,21.92-12.73,57,345.87,301.55-273,64.12-5.46,1.28-226.75,53.25-62.68-35.31-4.9-2.77-114.87-64.71-19.64-11.06-149.17-84-49-27.63L466.36,852.78l-8.2,11.66.91,22.91,100,56.34,49,27.62,351.21,197.86,59.85,96.35,12.94,20.83,56.77,91.41,4.41,7.1,8.55,13.77,87.63,141.08,6.3,10.13,6.57,10.58,64.56,103.93-.89,32.53-.61,22.87L1263,1811.1l33.84-5,4.08-151L998.06,1167.64l245.25-57.58,23-5.41,238-55.89,97.43,352.35,8.81-6.53,8.8-6.51,2.09-.55,21.59-5.65L1609.87,1262l-3.12-11.31-2.86-10.35-18.43-66.64-1.5-5.41-35.88-129.75,316.81-74.4,34.37,126.85,1.46,5.42,17,62.75,16.31-4.21,2.17,8,16.34-4.12-2.19-8.11-52.08-192.2,461.43-53.05,6.76-.78-5.65-16.31,16.21-1.8Zm-547.9,564.12-1.46-5.42-14.36-53-1.47-5.42-14.05-51.86-5.87-21.68-32.25-119-9.69,2.5-22.93,5.93,32.28,119.14,3.36,12.44,2.51,9.25,50.15,185.11,1.47,5.43,17.29,63.82,32.65-8.33Zm0,0-1.46-5.42-14.36-53-1.47-5.42-14.05-51.86-5.87-21.68-32.25-119-9.69,2.5-22.93,5.93,32.28,119.14,3.36,12.44,2.51,9.25,50.15,185.11,1.47,5.43,17.29,63.82,32.65-8.33Zm217.16-939.18-3.65-10.81v0l.34-4.22-1.72.18-22.89,2.41,14.75,43.62,22.89-2.41ZM410.29,187l-5.1-1,20.49,27,7.14,1.42Zm1536.24,987.88-22.93,5.93,32.28,119.14,18.07-4.73Zm627.05-310.21-5.68-17.09-196.41,22.58-22.83,2.63-448.38,51.55,30.47-102.81,1.72-5.83,23.41-79,1.72-5.83,25.84-87.19,6.92-23.37-22.86,2.53-1.88.21-13,6.18L1944,658.15,1863.52,929.8l-183.17,43-5.57,1.31L1533,1007.42,1418.4,907.51l-8.56-7.47-9.9-8.63-217-189.2,72.5-324.34,219.1,43.55,60.6,172.38,84.94-8.94,2.12-26.9-74.5,3.82-52.24-149-2.87.29-1.17-11.8-4.25-12.11L1232.23,346l-31.84,156.5-1.11,5.51-18.09-3.84L1150.9,639.64l-4.9,21.92-12.73,57,345.87,301.55-273,64.12-5.46,1.28-226.75,53.25-62.68-35.31-4.9-2.77-114.87-64.71-19.64-11.06-149.17-84-49-27.63L466.36,852.78l-8.2,11.66.91,22.91,100,56.34,49,27.62,351.21,197.86,59.85,96.35,12.94,20.83,56.77,91.41,4.41,7.1,8.55,13.77,87.63,141.08,6.3,10.13,6.57,10.58,64.56,103.93-.89,32.53-.61,22.87L1263,1811.1l33.84-5,4.08-151L998.06,1167.64l245.25-57.58,23-5.41,238-55.89,97.43,352.35,8.81-6.53,8.8-6.51,2.09-.55,21.59-5.65L1609.87,1262l-3.12-11.31-2.86-10.35-18.43-66.64-1.5-5.41-35.88-129.75,316.81-74.4,34.37,126.85,1.46,5.42,17,62.75,16.31-4.21,2.17,8,16.34-4.12-2.19-8.11-52.08-192.2,461.43-53.05,6.76-.78-5.65-16.31,16.21-1.8Z"/><rect class="cls-9" width="3369.31" height="2246.2"/></g></g></svg>