<svg xmlns="http://www.w3.org/2000/svg" xmlns:xlink="http://www.w3.org/1999/xlink" viewBox="0 0 1874.69 854.24"><defs><style>.cls-1{fill:none;}.cls-2{fill:#f8f5f0;}.cls-3{fill:#dcdcdc;}.cls-4{fill:#b5b5b5;}.cls-5{fill:#002e6d;opacity:0.51;}.cls-6{fill:#ccc;}.cls-7{fill:#999;}.cls-10,.cls-8{fill:#fff;}.cls-9{fill:#f32735;}.cls-10{opacity:0.5;}.cls-11{opacity:0.1;}.cls-12{fill:#d1cdc7;}.cls-13{fill:url(#Degradado_sin_nombre_44);}.cls-14{fill:url(#Degradado_sin_nombre_34);}.cls-15{isolation:isolate;}.cls-16{clip-path:url(#clip-path);}.cls-17{fill:#00204c;}.cls-18{fill:#00214e;}.cls-19{fill:#001f4a;}.cls-20{fill:#001e48;}.cls-21{fill:#001d46;}.cls-22{fill:#001d44;}.cls-23{fill:#001c41;}.cls-24{fill:#001b3f;}.cls-25{fill:#001a3d;}.cls-26{fill:#00193b;}.cls-27{fill:#001839;}.cls-28{clip-path:url(#clip-path-2);}.cls-29{clip-path:url(#clip-path-3);}.cls-30{clip-path:url(#clip-path-4);}.cls-31{clip-path:url(#clip-path-5);}.cls-32{clip-path:url(#clip-path-6);}.cls-33{clip-path:url(#clip-path-7);}.cls-34{clip-path:url(#clip-path-8);}.cls-35{clip-path:url(#clip-path-9);}.cls-36{clip-path:url(#clip-path-10);}.cls-37{clip-path:url(#clip-path-11);}.cls-38{clip-path:url(#clip-path-12);}.cls-39{fill:#002659;}.cls-40{clip-path:url(#clip-path-13);}.cls-41{clip-path:url(#clip-path-14);}.cls-42{clip-path:url(#clip-path-15);}.cls-43{clip-path:url(#clip-path-16);}.cls-44{fill:#001737;}.cls-45{clip-path:url(#clip-path-17);}.cls-46{clip-path:url(#clip-path-18);}.cls-47{clip-path:url(#clip-path-19);}.cls-48{fill:#00214d;}.cls-49{fill:#7a141b;}.cls-50{clip-path:url(#clip-path-20);}.cls-51{clip-path:url(#clip-path-21);}.cls-52{clip-path:url(#clip-path-22);}.cls-53{clip-path:url(#clip-path-23);}.cls-54{clip-path:url(#clip-path-24);}.cls-55{clip-path:url(#clip-path-25);}.cls-56{fill:#7e141c;}.cls-57{clip-path:url(#clip-path-26);}.cls-58{fill:#002148;}.cls-59{clip-path:url(#clip-path-27);}.cls-60{fill:#001834;}.cls-61{clip-path:url(#clip-path-28);}.cls-62{clip-path:url(#clip-path-29);}.cls-63{clip-path:url(#clip-path-30);}.cls-64{clip-path:url(#clip-path-31);}.cls-65{clip-path:url(#clip-path-32);}.cls-66{clip-path:url(#clip-path-33);}.cls-67{clip-path:url(#clip-path-34);}.cls-68{clip-path:url(#clip-path-35);}.cls-69{fill:#ac1c25;}.cls-70{clip-path:url(#clip-path-36);}.cls-71{clip-path:url(#clip-path-37);}.cls-72{clip-path:url(#clip-path-38);}.cls-73{clip-path:url(#clip-path-39);}.cls-74{clip-path:url(#clip-path-40);}.cls-75{fill:#001d45;}.cls-76{fill:#c7202b;}.cls-77{clip-path:url(#clip-path-41);}.cls-78{fill:#af1c26;}.cls-79{fill:#aa1b25;}.cls-80{fill:#a51b24;}.cls-81{fill:#a01a23;}.cls-82{fill:#9c1922;}.cls-83{fill:#971821;}.cls-84{fill:#921720;}.cls-85{fill:#8d171f;}.cls-86{fill:#88161e;}.cls-87{fill:#83151d;}.cls-88{clip-path:url(#clip-path-42);}.cls-89{clip-path:url(#clip-path-43);}.cls-90{clip-path:url(#clip-path-44);}.cls-91{clip-path:url(#clip-path-45);}.cls-92{clip-path:url(#clip-path-46);}.cls-93{clip-path:url(#clip-path-47);}.cls-94{clip-path:url(#clip-path-48);}.cls-95{clip-path:url(#clip-path-49);}.cls-96{clip-path:url(#clip-path-50);}.cls-97{clip-path:url(#clip-path-51);}.cls-98{clip-path:url(#clip-path-52);}.cls-99{clip-path:url(#clip-path-53);}.cls-100{clip-path:url(#clip-path-54);}.cls-101{clip-path:url(#clip-path-55);}.cls-102{clip-path:url(#clip-path-56);}.cls-103{clip-path:url(#clip-path-57);}.cls-104{clip-path:url(#clip-path-58);}.cls-105{clip-path:url(#clip-path-59);}.cls-106{clip-path:url(#clip-path-60);}.cls-107{clip-path:url(#clip-path-61);}.cls-108{clip-path:url(#clip-path-62);}.cls-109{clip-path:url(#clip-path-63);}.cls-110{clip-path:url(#clip-path-64);}.cls-111{clip-path:url(#clip-path-65);}.cls-112{clip-path:url(#clip-path-66);}.cls-113{clip-path:url(#clip-path-67);}.cls-114{clip-path:url(#clip-path-68);}.cls-115{fill:url(#Degradado_sin_nombre_53);}</style><linearGradient id="Degradado_sin_nombre_44" x1="861.86" y1="199.64" x2="1169.84" y2="199.64" gradientUnits="userSpaceOnUse"><stop offset="0" stop-color="#002e6d"/><stop offset="1" stop-color="#292347"/></linearGradient><linearGradient id="Degradado_sin_nombre_34" x1="1015.86" y1="267.12" x2="1015.86" y2="40.77" gradientUnits="userSpaceOnUse"><stop offset="0" stop-color="#002e6d"/><stop offset="1" stop-color="#29235c"/></linearGradient><clipPath id="clip-path"><path class="cls-1" d="M98.83,515.32l-3.77-13.86c2.32,2.57,6.19,3.93,10.2,3.86a15,15,0,0,0,13.27-7.87l3.77,13.85A14.93,14.93,0,0,1,109,519.17C105,519.25,101.15,517.89,98.83,515.32Z"/></clipPath><clipPath id="clip-path-2"><path class="cls-1" d="M97.05,512.64l-3.76-13.86a6,6,0,0,0,1.77,2.68l3.77,13.86A6.12,6.12,0,0,1,97.05,512.64Z"/></clipPath><clipPath id="clip-path-3"><path class="cls-1" d="M119.45,456.23l3.77,13.85a54.06,54.06,0,0,1,1.13,5.41c1.32,8,.45,16.16.71,24.25a23.14,23.14,0,0,1-2.76,11.56l-3.77-13.85a23.14,23.14,0,0,0,2.76-11.56c-.25-8.09.61-16.27-.71-24.26A54.46,54.46,0,0,0,119.45,456.23Z"/></clipPath><clipPath id="clip-path-4"><path class="cls-1" d="M26.31,523.52l-3.77-13.86c-.26-1-.49-1.94-.69-2.92a228.25,228.25,0,0,1-4.53-56.14c.21-6.25,0-6.23,6.28-6.35l60.73-1.2c4.39-.08,5.88-.11,6.4,1.8l3.76,13.86c-.51-1.92-2-1.89-6.39-1.8L27.37,458.1c-6.27.12-6.07.1-6.28,6.36a228.69,228.69,0,0,0,4.52,56.13C25.82,521.58,26.05,522.55,26.31,523.52Z"/></clipPath><clipPath id="clip-path-5"><path class="cls-1" d="M192.32,428.77l3.77,13.85q-1.12-4.12-2.5-8.18a52.56,52.56,0,0,0-13.14-20.24c-15.52-14.72-34-25.73-52.7-36.48-8.77-5.1-17.86-9.69-25.54-16.37L98.44,347.5c7.68,6.68,16.77,11.27,25.55,16.36,18.7,10.75,37.17,21.77,52.7,36.48a52.73,52.73,0,0,1,13.13,20.24C190.74,423.29,191.58,426,192.32,428.77Z"/></clipPath><clipPath id="clip-path-6"><path class="cls-1" d="M96.68,354.33l-3.76-13.86a20.59,20.59,0,0,0,5.52,7l3.77,13.85A20.7,20.7,0,0,1,96.68,354.33Z"/></clipPath><clipPath id="clip-path-7"><path class="cls-1" d="M94.82,349.14l-3.76-13.85a32.77,32.77,0,0,0,1.86,5.18l3.76,13.86A35.42,35.42,0,0,1,94.82,349.14Z"/></clipPath><clipPath id="clip-path-8"><path class="cls-1" d="M120.56,353.57l-3.77-13.85a4.37,4.37,0,0,1-.12-1.32c.43-10.41.23-20.78-.31-31.17a17,17,0,0,0-.54-3.67l3.76,13.85a16.43,16.43,0,0,1,.55,3.67c.54,10.39.73,20.76.31,31.17A4.33,4.33,0,0,0,120.56,353.57Z"/></clipPath><clipPath id="clip-path-9"><path class="cls-1" d="M186.57,286.52l3.77,13.86a43.22,43.22,0,0,0-6.53-13.74l-3.76-13.86A43.08,43.08,0,0,1,186.57,286.52Z"/></clipPath><clipPath id="clip-path-10"><path class="cls-1" d="M22.55,374.54l-3.77-13.85a107.4,107.4,0,0,1-3.65-23.34,154.46,154.46,0,0,1,2.54-37.08l3.77,13.85a154.51,154.51,0,0,0-2.54,37.09A106.71,106.71,0,0,0,22.55,374.54Z"/></clipPath><clipPath id="clip-path-11"><path class="cls-1" d="M157,268l-3.77-13.85c10.63,4,20,9.85,26.83,18.68l3.76,13.86C177,277.8,167.61,272,157,268Z"/></clipPath><clipPath id="clip-path-12"><path class="cls-1" d="M115.78,260.43,112,246.58A109.67,109.67,0,0,1,137.27,249a95.51,95.51,0,0,1,15.95,5.08L157,268a95.81,95.81,0,0,0-16-5.08A110.22,110.22,0,0,0,115.78,260.43Z"/></clipPath><clipPath id="clip-path-13"><path class="cls-1" d="M21.44,314.12l-3.77-13.85A56.14,56.14,0,0,1,43.32,261.4c9-5.94,19-9.24,29.38-11.88,8.18-2.07,16.41-2.5,24.66-2.66l4.84-.07,4.9-.07c1.63,0,3.27-.08,4.91-.14l3.77,13.85c-1.64.07-3.28.11-4.91.14l-4.9.08-4.84.07c-8.25.16-16.48.58-24.66,2.66-10.4,2.63-20.37,5.94-29.38,11.87A56.16,56.16,0,0,0,21.44,314.12Z"/></clipPath><clipPath id="clip-path-14"><path class="cls-1" d="M542.6,528.67l-3.76-13.85q2.31,3.82,8.92,3.71l3.77,13.85Q544.92,532.52,542.6,528.67Z"/></clipPath><clipPath id="clip-path-15"><path class="cls-1" d="M541.05,524.6l-3.77-13.85a21.62,21.62,0,0,0,1.56,4.07l3.76,13.85A22.29,22.29,0,0,1,541.05,524.6Z"/></clipPath><clipPath id="clip-path-16"><path class="cls-1" d="M551.53,532.38l-3.77-13.85h.58a14,14,0,0,0,8.14-2.82C558.8,514,560,509.65,560,503l3.77,13.85c0,6.69-1.25,11-3.56,12.75a14.1,14.1,0,0,1-8.14,2.81Z"/></clipPath><clipPath id="clip-path-17"><path class="cls-1" d="M692.21,462.55l-3.77-13.85q3.13,7.19,15,41.64t14.41,40.53l3.77,13.86q-2.58-6.09-14.41-40.53T692.21,462.55Z"/></clipPath><clipPath id="clip-path-18"><path class="cls-1" d="M432.13,532l-3.77-13.85h.42a11.16,11.16,0,0,0,9.57-5.76l3.77,13.85a11.14,11.14,0,0,1-9.57,5.76Z"/></clipPath><clipPath id="clip-path-19"><path class="cls-1" d="M424.34,528.34l-3.77-13.85a8.2,8.2,0,0,0,7.07,3.66l.72,0L432.13,532c-.24,0-.48,0-.72,0A8.18,8.18,0,0,1,424.34,528.34Z"/></clipPath><clipPath id="clip-path-20"><path class="cls-1" d="M505.94,526.94l-3.77-13.85q-2.35-8.66-2.33-21.68l3.77,13.86Q503.58,518.29,505.94,526.94Z"/></clipPath><clipPath id="clip-path-21"><path class="cls-1" d="M423,525l-3.77-13.86a12.5,12.5,0,0,0,1.38,3.33l3.77,13.85A12.24,12.24,0,0,1,423,525Z"/></clipPath><clipPath id="clip-path-22"><path class="cls-1" d="M442.12,526.2l-3.77-13.85a26.1,26.1,0,0,0,3.35-13.45l3.77,13.85A26.05,26.05,0,0,1,442.12,526.2Z"/></clipPath><clipPath id="clip-path-23"><path class="cls-1" d="M387.76,536.06,384,522.21a42,42,0,0,1-1.3-11l3.77,13.86A42,42,0,0,0,387.76,536.06Z"/></clipPath><clipPath id="clip-path-24"><path class="cls-1" d="M262.5,523.1l-3.77-13.86q2.08,7.69,10.88,7.52l3.76,13.86Q264.59,530.79,262.5,523.1Z"/></clipPath><clipPath id="clip-path-25"><path class="cls-1" d="M736.18,376.55,740,390.41c.32,1.17.58,2.37.79,3.59L737,380.15C736.76,378.93,736.5,377.73,736.18,376.55Z"/></clipPath><clipPath id="clip-path-26"><path class="cls-1" d="M536.67,427.42l.05,0,3.77,13.86,0,0-3.77-13.85Z"/></clipPath><clipPath id="clip-path-27"><path class="cls-1" d="M536.67,427.43h0l3.77,13.85h0C539.31,437.13,537.21,431.7,536.67,427.43Z"/></clipPath><clipPath id="clip-path-28"><path class="cls-1" d="M559.21,420,563,433.81a31.68,31.68,0,0,1,.87,8.09l-3.77-13.85A31.82,31.82,0,0,0,559.21,420Z"/></clipPath><clipPath id="clip-path-29"><path class="cls-1" d="M226.47,535.13l-3.77-13.85A42.9,42.9,0,0,1,221.36,510l3.77,13.85A42.9,42.9,0,0,0,226.47,535.13Z"/></clipPath><clipPath id="clip-path-30"><path class="cls-1" d="M386.5,506.12l-3.77-13.86a34.76,34.76,0,0,1,1.17-9.06,28.39,28.39,0,0,1,3.55-8.17,28.94,28.94,0,0,1,5.95-6.65,43.84,43.84,0,0,1,7.52-5,81.44,81.44,0,0,1,8.08-3.79c2.72-1.06,5.66-2.19,8.88-3.36s4.87-1.81,5.06-1.81l3.77,13.85c-.19,0-1.86.63-5.07,1.81s-6.16,2.31-8.87,3.36a79.32,79.32,0,0,0-8.08,3.8,44.37,44.37,0,0,0-7.52,5,29.2,29.2,0,0,0-6,6.65,28.51,28.51,0,0,0-3.55,8.17A35.2,35.2,0,0,0,386.5,506.12Z"/></clipPath><clipPath id="clip-path-31"><path class="cls-1" d="M426.71,468.24l-3.77-13.85q10.13-3.61,14.46-7.95c2.91-2.93,4.35-7.09,4.36-12.48l3.77,13.85c0,5.4-1.45,9.56-4.36,12.48S433.45,465.83,426.71,468.24Z"/></clipPath><clipPath id="clip-path-32"><path class="cls-1" d="M595,416.94l3.77,13.86q-2.65-9.78-9.81-15-11.44-8.4-37.2-7.91L548,394q25.78-.5,37.2,7.91Q592.35,407.18,595,416.94Z"/></clipPath><clipPath id="clip-path-33"><path class="cls-1" d="M441.31,421.72l3.77,13.86a14.89,14.89,0,0,1,.47,3.88l-3.77-13.85A15,15,0,0,0,441.31,421.72Z"/></clipPath><clipPath id="clip-path-34"><path class="cls-1" d="M503.7,445.86,499.94,432q0-18.93,11.45-28.21T548,394l3.77,13.85q-25.17.51-36.6,9.79T503.7,445.86Z"/></clipPath><clipPath id="clip-path-35"><path class="cls-1" d="M477.43,414.89l3.77,13.86a20.24,20.24,0,0,0-4.79-9.15l-3.77-13.86A20.35,20.35,0,0,1,477.43,414.89Z"/></clipPath><clipPath id="clip-path-36"><path class="cls-1" d="M386.58,445.4l-3.76-13.86q0-18.39,11.75-26.83t35.71-9l1.53,0a134.13,134.13,0,0,1,23.63,1.63,31.16,31.16,0,0,1,17.2,8.44l3.77,13.86a31.11,31.11,0,0,0-17.2-8.45,134.19,134.19,0,0,0-23.63-1.63l-1.53,0q-24,.57-35.71,9T386.58,445.4Z"/></clipPath><clipPath id="clip-path-37"><path class="cls-1" d="M374.94,412.42l-3.77-13.85a26.25,26.25,0,0,1,5.61.48l3.77,13.85A27,27,0,0,0,374.94,412.42Z"/></clipPath><clipPath id="clip-path-38"><path class="cls-1" d="M374.19,412.44l-3.77-13.85.75,0,3.77,13.85Z"/></clipPath><clipPath id="clip-path-39"><path class="cls-1" d="M340.63,431l-3.77-13.85a27.44,27.44,0,0,1,12.87-13.22l3.77,13.85A27.48,27.48,0,0,0,340.63,431Z"/></clipPath><clipPath id="clip-path-40"><path class="cls-1" d="M353.5,417.75l-3.77-13.85a44.83,44.83,0,0,1,20.32-5.3h.37l3.77,13.85h-.38A45.08,45.08,0,0,0,353.5,417.75Z"/></clipPath><clipPath id="clip-path-41"><path class="cls-1" d="M1007.85,597.35l-3.77-13.85a.93.93,0,0,0,.49.07,13.41,13.41,0,0,0,11.55-7l3.77,13.85a13.46,13.46,0,0,1-11.55,7A1,1,0,0,1,1007.85,597.35Z"/></clipPath><clipPath id="clip-path-42"><path class="cls-1" d="M996.7,589l-3.77-13.85a15.47,15.47,0,0,0,1.69,4.05q2.71,4.41,9.13,4.28h.33l3.77,13.85h-.34c-4.26.08-7.31-1.34-9.12-4.27A15.21,15.21,0,0,1,996.7,589Z"/></clipPath><clipPath id="clip-path-43"><path class="cls-1" d="M1019.89,590.47l-3.77-13.85a31.18,31.18,0,0,0,4-16.22l3.77,13.85A31.25,31.25,0,0,1,1019.89,590.47Z"/></clipPath><clipPath id="clip-path-44"><path class="cls-1" d="M954.26,602.41l-3.77-13.86a50,50,0,0,1-1.54-13.3l3.77,13.85A49.68,49.68,0,0,0,954.26,602.41Z"/></clipPath><clipPath id="clip-path-45"><path class="cls-1" d="M952.75,566.16,949,552.3a43.22,43.22,0,0,1,1.4-10.95,35.06,35.06,0,0,1,11.55-17.89,54.9,54.9,0,0,1,9.08-6,90.52,90.52,0,0,1,9.78-4.57q4.89-2,10.64-4.07c3.82-1.4,5.86-2.14,6.1-2.15l3.76,13.86c-.23,0-2.27.74-6.09,2.15s-7.39,2.77-10.65,4.07a89.41,89.41,0,0,0-9.77,4.56,54.33,54.33,0,0,0-9.08,6.05,35,35,0,0,0-11.55,17.88A43.24,43.24,0,0,0,952.75,566.16Z"/></clipPath><clipPath id="clip-path-46"><path class="cls-1" d="M1001.29,520.49l-3.76-13.86q12.24-4.25,17.47-9.58l3.77,13.85Q1013.54,516.24,1001.29,520.49Z"/></clipPath><clipPath id="clip-path-47"><path class="cls-1" d="M1018.77,510.9,1015,497.05c3.55-3.49,5.24-8.55,5.25-15.06l3.77,13.85C1024,502.35,1022.32,507.42,1018.77,510.9Z"/></clipPath><clipPath id="clip-path-48"><path class="cls-1" d="M1019.7,467.2l3.77,13.86a17.72,17.72,0,0,1,.57,4.69l-3.77-13.85A17.85,17.85,0,0,0,1019.7,467.2Z"/></clipPath><clipPath id="clip-path-49"><path class="cls-1" d="M1063.33,459l3.77,13.85q-1.95-7.17-5.8-11.05a37.33,37.33,0,0,0-20.75-10.19,158.51,158.51,0,0,0-28.31-2l-2,0q-28.94.56-43.12,10.76t-14.23,32.4L949.09,479q0-22.18,14.23-32.39t43.12-10.77l2-.05a160.39,160.39,0,0,1,28.31,2,37.44,37.44,0,0,1,20.76,10.2Q1061.38,451.85,1063.33,459Z"/></clipPath><clipPath id="clip-path-50"><path class="cls-1" d="M1140.23,582.37l-3.76-13.86q3.43,12.66,13.46,12.46l3.77,13.85Q1143.68,595,1140.23,582.37Z"/></clipPath><clipPath id="clip-path-51"><path class="cls-1" d="M1153.7,594.82,1149.93,581c8.66-.17,13-8.32,13-24.47l3.77,13.86C1166.67,586.5,1162.36,594.66,1153.7,594.82Z"/></clipPath><clipPath id="clip-path-52"><path class="cls-1" d="M1161.66,469.37l3.76,13.85a49.71,49.71,0,0,1,1.4,12.84l-3.77-13.85A49.7,49.7,0,0,0,1161.66,469.37Z"/></clipPath><clipPath id="clip-path-53"><path class="cls-1" d="M1205.17,457.12l3.76,13.85q-2.52-9.27-8.55-14.7-10.44-9.37-31.05-9l-3.76-13.86q20.61-.39,31,9Q1202.64,447.83,1205.17,457.12Z"/></clipPath><clipPath id="clip-path-54"><path class="cls-1" d="M1138.59,464l-3.76-13.85a31.31,31.31,0,0,1,11.53-11.83l3.77,13.86A31.31,31.31,0,0,0,1138.59,464Z"/></clipPath><clipPath id="clip-path-55"><path class="cls-1" d="M1150.13,452.22l-3.77-13.86a38,38,0,0,1,18-4.91h1.26l3.76,13.86h-1.26A37.85,37.85,0,0,0,1150.13,452.22Z"/></clipPath><clipPath id="clip-path-56"><path class="cls-1" d="M1292.94,594.74l-3.77-13.85h.51a15.89,15.89,0,0,0,9.79-3.62l3.77,13.85a15.91,15.91,0,0,1-9.79,3.62Z"/></clipPath><clipPath id="clip-path-57"><path class="cls-1" d="M1303.24,591.12l-3.77-13.85c2.66-2.31,4-5.8,4-10.52l3.77,13.86C1307.25,585.32,1305.9,588.81,1303.24,591.12Z"/></clipPath><clipPath id="clip-path-58"><path class="cls-1" d="M1280,584.93l-3.77-13.85q2.73,10,13,9.81l3.77,13.85Q1282.71,594.93,1280,584.93Z"/></clipPath><clipPath id="clip-path-59"><path class="cls-1" d="M1302.92,547.72l3.77,13.86a17.12,17.12,0,0,1,.59,5l-3.77-13.85A17.22,17.22,0,0,0,1302.92,547.72Z"/></clipPath><clipPath id="clip-path-60"><path class="cls-1" d="M1237.15,588.7l-3.76-13.85a81.25,81.25,0,0,1-2.45-21.35l3.76,13.85A82,82,0,0,0,1237.15,588.7Z"/></clipPath><clipPath id="clip-path-61"><path class="cls-1" d="M1349.52,534.88l3.77,13.85q-5.37-19.76-36.15-29.39a202.84,202.84,0,0,1-19.88-7.18l-3.77-13.85a202.78,202.78,0,0,0,19.88,7.17Q1344.15,515.13,1349.52,534.88Z"/></clipPath><clipPath id="clip-path-62"><path class="cls-1" d="M1290.28,507.42l-3.76-13.85a37.06,37.06,0,0,0,7,4.74l3.77,13.85A36.52,36.52,0,0,1,1290.28,507.42Z"/></clipPath><clipPath id="clip-path-63"><path class="cls-1" d="M1285.58,500.2l-3.76-13.85c0,.2.11.4.17.6a13.71,13.71,0,0,0,4.53,6.62l3.76,13.85a13.73,13.73,0,0,1-4.53-6.62C1285.7,500.6,1285.64,500.4,1285.58,500.2Z"/></clipPath><clipPath id="clip-path-64"><path class="cls-1" d="M1240.69,511l-3.77-13.86a39,39,0,0,1-1.36-11.29l3.76,13.86A39.4,39.4,0,0,0,1240.69,511Z"/></clipPath><clipPath id="clip-path-65"><path class="cls-1" d="M1306.87,463.14l3.77,13.85a32.12,32.12,0,0,1,1,8.49l-3.77-13.85A32.12,32.12,0,0,0,1306.87,463.14Z"/></clipPath><clipPath id="clip-path-66"><path class="cls-1" d="M1239.33,491l-3.77-13.86a54.17,54.17,0,0,1,4.77-23.85l3.77,13.85A54.19,54.19,0,0,0,1239.33,491Z"/></clipPath><clipPath id="clip-path-67"><path class="cls-1" d="M1348.52,459.2l3.76,13.86q-3.32-12.22-11.43-18.4-13.74-10.49-42.71-9.92h-.54l-3.77-13.86h.54q29-.56,42.71,9.93Q1345.2,447,1348.52,459.2Z"/></clipPath><clipPath id="clip-path-68"><path class="cls-1" d="M1244.1,467.09l-3.77-13.85q4.76-9.67,17-15.81t36.55-6.54l3.77,13.86q-24.48.47-36.55,6.54T1244.1,467.09Z"/></clipPath><linearGradient id="Degradado_sin_nombre_53" x1="937.09" y1="152.06" x2="1091.43" y2="152.06" gradientUnits="userSpaceOnUse"><stop offset="0" stop-color="#002e6d"/><stop offset="0" stop-color="#be1622"/><stop offset="0.26" stop-color="#c61925"/><stop offset="0.68" stop-color="#dd202d"/><stop offset="1" stop-color="#f32735"/></linearGradient></defs><g id="Capa_2" data-name="Capa 2"><g id="Capa_1-2" data-name="Capa 1"><polygon class="cls-1" points="1874.69 847.75 1783.06 815.04 1562.24 736.23 1445.48 777.9 1356.33 809.72 1336.08 816.95 1285.31 835.07 1269.58 840.68 1249.79 847.75 1056.59 778.79 1030.03 769.31 983.81 752.81 957.58 743.45 937.34 736.23 831.4 774.04 797.74 786.06 782.63 791.45 768.56 796.47 697.07 821.98 675.23 829.78 624.9 847.75 582.36 832.56 548.27 820.4 491.09 799.99 480.06 796.05 461.62 789.47 434.1 779.65 394.04 765.35 381.22 760.78 347.47 748.73 328.91 742.1 328.91 742.1 312.45 736.23 287.04 745.3 287.04 745.3 258.3 755.55 258.29 755.56 129 801.7 100.7 811.8 37.85 834.24 0 847.75 25.78 810.18 32 801.12 40.92 788.12 65.19 752.74 70.82 744.54 76.51 736.26 96.63 706.94 100.68 701.04 105.99 693.3 226.62 517.51 251.9 480.66 254.72 476.55 266.36 459.6 276.18 445.29 300.7 409.56 306.54 401.04 327.13 371.04 330.82 365.66 363.9 317.45 365.71 314.83 372.42 312.44 415.63 297.01 423.98 294.03 445.47 286.36 465.87 279.08 512.01 262.61 521.9 259.08 556.25 246.82 591.21 259.3 591.21 259.3 593.16 260 613.72 267.33 624.09 271.03 641.95 277.41 711.6 302.26 746.8 314.83 767.27 307.52 838.45 282.12 852.08 277.25 874.96 269.09 883.83 265.92 918.67 253.49 920.49 252.84 937.34 246.82 1006.11 271.37 1017.03 275.26 1092.48 302.19 1105.26 306.75 1127.89 314.83 1146.22 308.29 1153.97 305.52 1180.67 295.99 1183.06 295.14 1208.17 286.18 1217.62 282.81 1235.72 276.34 1238.03 275.52 1249.36 271.48 1261.38 267.18 1265.91 265.57 1275.01 262.32 1299.65 253.53 1311.26 249.38 1318.43 246.82 1325.61 249.38 1337.22 253.53 1356.25 260.32 1366.38 263.93 1374.87 266.97 1386.77 271.21 1445.16 292.05 1461.45 297.87 1508.98 314.83 1511.65 318.71 1517.99 327.95 1527.82 342.28 1531.1 347.06 1554.61 381.32 1558.28 386.66 1585.53 426.38 1590.28 433.3 1599.09 446.15 1599.1 446.15 1607.07 457.76 1652.36 523.77 1654.78 527.3 1682.58 567.8 1694.52 585.19 1748.94 664.5 1754.13 672.07 1757.18 676.51 1780.05 709.84 1788.2 721.71 1874.69 847.75"/><path class="cls-2" d="M518,757.71l-.34,13.34,32.11-3.31.33-12ZM650.46,736l-16.37.61-9.59,14.73-41.43,2.48L582.94,768l59.86,1.45,43.5,1.06,6.77-36.14Zm578.17,19.27-36.21,5,11.86,56,40.46,9.4,40.57,9.42L1336.08,817l54.45-83.84Zm-271.2-24.5-20.09,2.71-59.35,8-135.2-8.93-30.21,1.13L706,771l125.38,3,105.94-37.81,20.24,7.22Zm213.77-10.2L983.57,744l.24,8.79,46.22,16.5,147-20ZM1299,708.13l-79.9,5.63-36,2.54h0l6.63,31.33,36-4.89,103.28-14ZM1353.18,689l-42.78,8-93.72,6-102.48,6.58-131.08,17.7.23,8.44L1182,711l.7,3.33,36-2.54,81.33-5.72,32.42,22.2h0l57.93-7.86Zm-800.95-9.27-32.39,3.18-.31,12.63,32.15,3.74.55-19.55Zm113.65-11.15-82.12,8.06L583.52,703l14,1.62,61.41-5.45,41.46-3.68,5.76-30.84Zm647.63-13.08h0l-104,15.93L982.55,706.17l.07,2.53,22.46,3L1170,686.87l41.54-6.46,111-17.27ZM537.16,639.64l-98.24,43.67,113.52-11.08.5-17.77Zm587.77-17.55-167.2,25.39,20.68,43.28,171.35-26Zm104.66-15.9-33.88,5.15-53.58,8.13h0l25.29,42.62,38.57-5.85,52.17-7.91Zm-118.29-7.55-165.49,23.9,10.08,21.08h0l166.87-25.28h0Zm-806.61-8.17L267.7,700l64.57-6.31,31.78-107.86Zm166.36-12.92-32.26,2.51L413.55,685.79l19.14-1.87h0l103-45.7Zm208.63,36-1.23.11-95.36,8.66,5.27-53.83-83.07,6.45L584,647.2l-.2,22L667.62,661l39.9-3.9,2-10.6Zm1014.83-28.31-70.42-22.86,39,97.87,85.86,4.3Zm59.62,86.88L1653.38,667l-41.82-107-128,18.27L1404,589.6l-80.61,62.33,11.14,9.34L1442.3,644.5l66.36-15.82,112.95-26.92,26,69.61,109.57,5.14ZM437.32,545.87l-31.26,2.44-89.49,7L307,583.69l84.72-6.55,72.91-5.64Zm641.4-3.25L937.34,563.48l-18.46,2.72,18.46,38.64,7.65,16h0L1110.34,597Zm269.2-6.37-163.39,26.21-69.6,11.16,25,42.13,54.9-8.31,38.48-5.83,31.21,45.76,39.49-6,81.83-62.28ZM606.6,532.69,470.85,543.26l27.88,25.61,131.4-10.16Zm1048.18-5.39-43.52-3.58,7.28,23.47,64,20.61ZM1334.44,521h0l-153.93,23.84-75.7,11.72L1114,572l70.17-11.24,162.44-26Zm-917.59,5.62-14.12-13.26-73.87,5.5-10.1,29.92,90.56-7,21.84-1.69Zm1123.67-14.43-80.08,9.46,38.49,40.13,31.5-4.45h0l10.08-45.14Zm-218.7-5.45-145.13,21.41-81.59,12,8.78,14.8,76.25-11.79,153-23.66Zm272.67-.92-50.92,6-10,45h0l73.21-10.36ZM435.64,510.93l28.93,26.56,40.4-3.13,3.59-28.86Zm521.44,190.2-19.74-42.71-39.8-86.12-84.85,35.21L796,630l-11.07-2.55L801.76,605,789,553.68l-68.23-68.74-13.27,1.64L596.89,500.2,683,594l45.46,49.53-8.82,50.25L797,686.87l120.4,13.2,19.94,2.64,19.79,2.62Zm86-219.77h0L937.34,495.31l-49.24,6.5,8.65,18.11,40.59-5.73,115.39-16.27Zm-676.88-2.27-22.45-4.38-12.82,38,65.86-4.88Zm923.64-8.46L1167.49,488l-95.38,13.5,19.37,32.64,83.75-12.3L1316.75,501Zm-440-1.58L732.27,483.53l67.89,67.78,12.3,48,81.94-33.82ZM266.36,459.6l-11.64,16.95.05,28.58h31.41l22.57,39.3h0l24.75-71.72Zm1216.26-8.84-60.76,3.66-24.52,1.49,52.52,54.73,4.93,5.14,83.74-9.85ZM601.35,526.88l-23.76-26.27-127-41.75-28.58-9.4L393.25,472l34.87,32,1.49,1.37,91-6.75-4.06,34.82ZM283.86,506.65h-32v-26l-25.28,36.85,2.33,2-15.06,37.59,89.25,3.63L307.52,548Zm739.64-59-86.16,10.61-66.15,8.15,16.22,33.94h0l49.93-6.58L1042.28,480h0Zm583.57,10.1-36.55-12.31-85.23,5.15,55.87,55,62.21-7.32,6.83,22,42.16,3.46ZM691.45,441.45l-74.78,1.89L558.29,483.2l28.48,9.3,114.13-14ZM359.27,428.82,349,459.33h0L373.34,464l27.85-21.44ZM584,416.22l-79.15,49.55,51.21,16.71,58.37-39.79Zm-112.36.4-6-1.28h0L431.72,441.9l23.53,7.68,41,13.37,49.18-30.61h0ZM900,412.5l-88.71,21.22,53,24.8,68.33-8.36h0Zm330.42-9-81.27,4.37-97.06,5.21-12.4,24.78L1154.46,431l95.29-5.69ZM300.7,409.56l-24.52,35.73,62.63,12.08,10.94-31.68ZM1214.13,385h0l-69.33,3.75-82.8,4.47-9.21,18.42h0l96.07-5.16,80.45-4.31Zm344.15,1.62-69.38-6.93L1500,413l70.39,23.57,15.1-10.17Zm-244.85-7-89,4.81,35.88,40.18,90.75-5.42Zm-376.09,23.9-34.94,8.36h0l32.88,37.9,2.06-.25,85-10.4L1055,375.42ZM449.08,374.12l-82.94,46.37,44.78,14.62,42.55-32.75h0Zm1021.7-2.95-88,4.75-59.08,3.2,37.9,39.5,41.22-2.46,81-4.84Zm-274-5.79-56.57,3.1-67.62,3.7-9.87,19.73,81.84-4.42L1213,383.8Zm-471.33,43-40.71-19.28,8.18-12.89-95.36-11.93-53.37,38.82,46.65,8.9L585.9,415l31,26.92L693.82,440l9.81,38.18,6-.73,128.52-15.73ZM1294.73,360l-87.82,4.81,16.45,18.42,88.9-4.8Zm-967.6,11-20.59,30L358,417.85l42-23.38Zm260.56-8-47.57-5.95-63.57,49.74-9.35,7.32,5.15,1.09h0l74.91,15.95h0l26.53-16.51L528.31,406ZM503.6,352.51l-13-1.62L451.5,372.77h0l4.36,27.74,38.64-29.74,21.68-16.68Zm960.56-1.79-91.47,5-67.88,3.72,17.68,18.43,59.63-3.22,88.25-4.76ZM1179,345.33l-43.62,2.24-51.86,2.66L1075.13,367l63.89-3.48,53.48-2.92Zm97-5-87,4.46L1202.64,360l87.57-4.77ZM1457.79,331l-95,4.87L1286,339.85l14.25,14.86,70-3.83,92.31-5Zm-879.92-3.5h0l-32,25L696,371.29l18.72-29.51Zm-58.78-6.11-.21,0-22.67,25,9.83,1.22,16,2,31.91-24.56ZM1518,328l-45.67,2.34,5,14.75,50.55-2.76ZM966.33,317.38l-29,1.36-72.44,3.41,19.5,28.48,52.94-2.69,36.95-1.88Zm-29,40.34-28.93,1.48-38.16,2L845.67,324.4l-94.29-9-7.49,12.09-35.81,57.84,20.4,9.55L803,429.8l96.72-23,37.67-9L1058.28,369l9.18-17.92Zm76.32-42.57L976,316.92l8.17,28.63,38-1.93Zm9.66-.45,8.77,28.42,40.49-2.06,15-29.39ZM610.46,302.05l-31.2,24.41,136.19,14.15,17.12-26.95Zm-68.14-6.48-22.43,24.72L555.31,324l31.42-24.18ZM1509,314.83l-47.53-17,7.72,23,42.48-2.16ZM371.4,349l62.89-38.25L415.63,297l-43.22,15.43-.94,1.16-7.57,3.85-33.08,48.21,76.85,24.57,34.45-19.16Zm536.28-69.58-69.23,2.66-71.17,25.4,93.65,8.84.89,1.3L917.66,315Zm238.54,28.83-18.33,6.54-22.63-8.08-16.75,33.49,44.67-2.27,37.61-1.91ZM955.29,277.63l-17.95.69L910,279.37l10.05,35.56h0l17.25-.81,27.73-1.3Zm46.54-1.78-37.13,1.42,10,35.1,37.58-1.76ZM642,277.41,621.1,293.73l90.5,8.53ZM1017,275.26l-5.82.23,10.71,34.66L1090,307l2.45-4.78ZM1180.68,296,1154,305.52l26.81,30,.75,0Zm27.49-9.81-25.11,9,.94,40.25h0l25.2-1.29Zm27.55-9.84-18.1,6.47,1.48,50.79,20.5-1h0Zm30.67-4.9-17,0-11.33,4,4,56.91,29.21-1.49Zm178.77,20.61-58.39-20.84-18.77,0,12,54.16,74.75-3.8ZM567.67,267.63,550.07,287l47.43,4.48,24.63-19Zm-20.85-1.88L512,262.61l-46.14,16.47,71,6.7,4.14.39,17.7-19.35Zm719.09-.18-4.52,1.61H1266Zm90.34-5.25-19-6.79h-37.57L1275,262.32l.43,4.84,53.07-.11,29.17-.05Zm10.13,3.61.67,3.05h7.82ZM593.16,260l-18.69,3.8,39.25,3.53ZM32,801.12l-6.22,9.06,12.07,24.06L100.7,811.8Zm297.73-99.57L193.48,714.91l-1.31.13-1.15-.18L100.68,701l-4.05,5.9,78.09,12.78,45.45.53L301.41,711h42.9l152.21-18.17,10.31,1.2.32-9.91Zm-25-111.08L267.7,700l64.57-6.31,31.78-107.86Zm42.78,158.26,33.75,12,1.5-14.75Zm-196,15-.95-.12L65.19,752.74,40.92,788.12,129,801.7l129.29-46.14h0ZM316.57,555.28,307,583.69l84.72-6.55,14.36-28.83ZM461.62,789.47l18.43,6.58,12.39-9.78Zm26.34-30-56.26-34.2-118.52,9.44L163.82,746.66l-87.31-10.4-5.69,8.29,84.93,10.76L287,745.3h0l25.41-9.07,16.46,5.87h0l67.8-5.16L394,765.35l40.06,14.3,70.17-7.23.46-13.91Zm22.77,24.86L491.09,800l57.18,20.41,1.13-40Zm129.16-2.17-57.06-1.4-.47,51.76,42.54,15.18,50.33-18,8.69-46.5Zm63.89,1.56L697.07,822l71.49-25.51,1.57-11.09Zm79.62,2-.77,5.74,15.1-5.39ZM1247,835.4l-55-12.83L1179.64,762l-123.05,16.83,193.2,69,19.79-7.06Zm160.84-104.65-1,.13-50.5,78.84,89.15-31.82ZM556.25,246.82,521.9,259.08l27,2.43,21.78,2,20.49-4.17ZM910,279.37l10.05,35.56h0l17.25-.81v-35.8Zm0,0,10.05,35.56h0l17.25-.81v-35.8Zm0,0,10.05,35.56h0l17.25-.81v-35.8Zm0,0,10.05,35.56h0l17.25-.81v-35.8Zm0,0,10.05,35.56h0l17.25-.81v-35.8Zm0,0,10.05,35.56h0l17.25-.81v-35.8ZM875,269.09l-22.88,8.16,24.09-.92ZM910,279.37l10.05,35.56h0l17.25-.81v-35.8Zm27.3-15.49-18.67-10.39-34.84,12.43L885.59,276l51.75-2,17-.65ZM910,279.37l10.05,35.56h0l17.25-.81v-35.8Zm0,0,10.05,35.56h0l17.25-.81v-35.8Zm0,0,10.05,35.56h0l17.25-.81v-35.8Zm0,0,10.05,35.56h0l17.25-.81v-35.8Zm0,0,10.05,35.56h0l17.25-.81v-35.8Zm0,0,10.05,35.56h0l17.25-.81v-35.8Zm27.3-32.55-16.85,6,16.85,9.37,19.84,11,48.93-1.87Zm381.09,0-7.17,2.56h14.35Z"/><polygon class="cls-3" points="426.8 580.99 376.12 584.92 345.25 692.46 400.68 687.04 426.8 580.99 426.8 580.99"/><polygon class="cls-3" points="1056.11 503.73 899.61 525.89 915.87 559.9 1075.16 536.5 1056.11 503.73 1056.11 503.73"/><polygon class="cls-4" points="635.61 564.77 600.13 567.53 595.92 614.14 673.89 607.09 635.61 564.77 635.61 564.77"/><polygon class="cls-4" points="1256.75 433.21 1039.36 446.26 1068.68 495.67 1285.03 465.17 1256.75 433.21 1256.75 433.21"/><path class="cls-3" d="M1468.58,542.74h0l-2.53.39-87.83,13.56h0l17.58,19.68,81.1-11.47,11.26-1.59Zm-5.72-6-42.37-44.54-88.23,13,44.58,49.94h0l88.4-13.64,1.89-.29Zm-76-79.85-86.8,12.29,27.05,30.31,88-12.92Zm-28.34-29.8-91.15,5.48,27.82,31.16,86.57-12.21Zm133.69-8-85.44,5.13-37.71,2.26,23,24,27-1.62,137-8.24Z"/><polygon class="cls-4" points="1554.61 381.32 1487.18 374.61 1478.9 349.92 1531.1 347.06 1554.61 381.32"/><polygon class="cls-4" points="533.18 294.7 531.47 296.56 531.47 296.56 531.46 296.57 485.23 347.1 449.49 366.98 385.9 347.26 446.25 310.36 423.98 294.03 445.47 286.36 532.44 294.63 533.18 294.7"/><polygon class="cls-4" points="37.85 834.24 0 847.75 25.78 810.18 37.85 834.24"/><polygon class="cls-4" points="1599.09 446.15 1580.52 439.93 1590.28 433.3 1599.09 446.15"/><polygon class="cls-4" points="1358.59 271.26 1275.83 271.42 1281.11 330.44 1370.26 325.91 1358.59 271.26 1358.59 271.26"/><path class="cls-4" d="M1639.23,721.71h-165.4l-66,9,37.67,47.15,116.76-41.67L1783.06,815Zm-48.46-31.44-59.16-15.52-42.47-11.15L1365,686.78l38,31.88,64.07-8.69.93-.13h152.88Z"/><path class="cls-5" d="M1788.2,721.71h-149L1783.06,815l91.63,32.7ZM519.53,695.53,518,757.71l32.1-1.93,1.6-56.51Zm139.36,3.61-61.41,5.45-14-1.62-.45,50.83,41.43-2.48,9.59-14.73,16.37-.61,42.61-1.59,7.28-38.93Zm-162.37-6.29L344.31,711h-42.9l-81.24,9.23-45.45-.53L96.63,706.94,76.51,736.26l87.31,10.4,149.36-11.91,118.52-9.44L488,759.51l16.77-1,2.1-64.46Zm460.61,12.48-19.79-2.62-19.94-2.64L797,686.87l-77.41,6.88-7,39.92,30.21-1.13L878,741.47l59.35-8,20.09-2.71Zm365.43-42.19h0l-111,17.27L1170,686.87l-164.9,24.81-22.46-3,.5,18.58,131.08-17.7L1216.68,703l93.72-6,42.78-8Zm434.62,13.37-109.57-5.14-26-69.61-112.95,26.92L1442.3,644.5l-107.73,16.77L1365,686.78l124.13-23.18,42.47,11.15,59.16,15.52,30.16,19.57h159.12Z"/><polygon class="cls-5" points="303.14 560.69 254.59 701.31 196.15 707.02 105.99 693.3 226.62 517.51 228.95 519.47 213.89 557.06 303.14 560.69"/><path class="cls-6" d="M1238,275.52l-2.31.82,3.88,56.22,2.46-.13Z"/><path class="cls-6" d="M1183.06,295.14l-2.38.85.85,39.52,2.47-.12Z"/><polygon class="cls-6" points="957.18 273.24 954.35 273.34 937.34 263.88 918.67 253.49 920.49 252.84 937.34 262.21 957.18 273.24"/><polygon class="cls-6" points="593.16 260 574.47 263.8 570.72 263.47 591.21 259.3 591.21 259.3 593.16 260"/><path class="cls-6" d="M286.18,505.13H254.77l-.05-28.58-2.82,4.11v26h32L307.52,548l1.23-3.57Z"/><polygon class="cls-6" points="1300.02 706.06 1182.7 714.32 1182.7 714.32 1183.12 716.3 1299.04 708.13 1329.05 728.71 1329.05 728.71 1332.44 728.25 1300.02 706.06 1300.02 706.06"/><polygon class="cls-6" points="1346.59 534.75 1113.98 572.02 1114.92 573.62 1347.92 536.25 1347.92 536.25 1346.59 534.75 1346.59 534.75"/><polygon class="cls-6" points="1333.14 519.55 1103.88 555 1103.88 555 1104.81 556.57 1334.44 521.02 1333.14 519.55 1333.14 519.55 1333.14 519.55"/><polygon class="cls-6" points="1467.14 541.23 1376.84 555.15 1376.84 555.15 1378.22 556.69 1468.58 542.74 1467.14 541.23 1467.14 541.23"/><polygon class="cls-6" points="1042.28 479.95 887.41 500.36 888.1 501.81 888.1 501.81 1043.1 481.36 1042.28 479.95 1042.28 479.95"/><polygon class="cls-6" points="585.89 415.04 585.89 415.04 584.02 416.22 614.45 442.69 556.08 482.48 558.29 483.2 616.67 443.35 691.45 441.45 700.9 478.53 700.9 478.52 703.63 478.19 693.82 440.01 616.9 441.96 585.89 415.04 585.89 415.04"/><path class="cls-6" d="M472.36,415.23h0l-5.15-1.09h0l-1.54,1.2,6,1.28,73.76,15.72,1.85-1.16ZM451.5,372.77l-2.42,1.35,4.39,28.24,2.39-1.84h0Z"/><polygon class="cls-6" points="535.65 638.22 432.69 683.92 438.91 683.31 438.91 683.31 537.16 639.64 537.16 639.64 535.65 638.22 535.65 638.22"/><path class="cls-6" d="M1540.52,512.21l-10.08,45.14,3.16-.45,10-45Zm-55.23-61.61h0l-2.67.16,55.91,55.17h0l2.63-.31Z"/><polygon class="cls-7" points="1654.78 527.3 1611.26 523.72 1610.2 520.31 1652.36 523.77 1654.78 527.3"/><path class="cls-6" d="M1213,383.8l-68.52,3.69-81.84,4.42-.67,1.34,82.8-4.47,69.33-3.75Zm99.23-5.36-88.9,4.8h0l1.1,1.24,89-4.81Zm158.11-8.53-88.25,4.76-59.63,3.22,1.18,1.23,59.08-3.2,88-4.75Z"/><polygon class="cls-6" points="1229.31 402.2 1052.79 411.67 1052.11 413.05 1230.44 403.47 1230.44 403.47 1229.31 402.2 1229.31 402.2 1229.31 402.2"/><polygon class="cls-6" points="902.4 411.93 900.02 412.5 932.62 450.16 932.62 450.16 935.28 449.83 902.4 411.93 902.4 411.93"/><path class="cls-6" d="M579.26,326.46l-1.39,1.08,136.84,14.24.74-1.17Zm-59.37-6.17-.53.59-.48.53.21,0,34.82,3.62h0l1.4-1.08Z"/><polygon class="cls-6" points="910.04 279.37 910.04 279.37 907.68 279.46 917.66 315.04 920.09 314.93 910.04 279.37 910.04 279.37"/><polygon class="cls-6" points="1110.34 596.99 945 620.85 945.81 622.54 1111.3 598.64 1111.3 598.64 1110.34 596.99 1110.34 596.99"/><path class="cls-7" d="M1122.76,618.35,955.89,643.63l1.83,3.85h0l167.2-25.39Zm110.54-16.74-38.48,5.83-54.9,8.31,2.21,3.72,53.58-8.13,33.88-5.15,28.57,42.15,6.35-1Z"/><polygon class="cls-8" points="783.4 785.71 782.63 791.45 768.56 796.47 770.13 785.38 783.4 785.71"/><path class="cls-8" d="M1244.74,825.65l-40.46-9.4-11.86-56L1179.64,762,1192,822.57l55,12.83,22.61,5.28,15.73-5.61Zm145.79-92.54L1336.08,817l20.25-7.23,50.5-78.84ZM1183.12,716.3h0l-.42-2h0L1182,711,983.35,735.72l.22,8.3,187.63-23.47,5.88,28.8,12.67-1.72ZM1365,686.78l-30.44-25.51-11.14-9.34-3.28,2.54-6.64,1,9,7.65h0L1353.18,689l37.19,31.4,6.35-.86,6.33-.87Z"/><path class="cls-8" d="M492.44,786.27l-12.39,9.78,11,3.94,19.64-15.62ZM667.62,661l-83.79,8.18-.07,7.47,82.12-8.06,40.23-4,1.41-7.54Zm1081.32,3.52-85.86-4.3-39-97.87-8.84-2.87-3.69.52,41.82,107,100.75,5.06ZM678.72,612.44l-2-2.22-2.83-3.13-78,7,4.21-46.61,35.48-2.76-3.62-4-1.86-2-131.4,10.16,6.56,6,83.07-6.45-5.27,53.83,95.36-8.66,1.23-.11ZM1077.2,540l-2-3.5L937.34,556.74l-21.47,3.16,1.49,3.14,1.52,3.16,18.46-2.72,141.38-20.86ZM601.35,526.88l-84.83,6.58,4.06-34.82-91,6.75,6,5.54,72.92-5.43L505,534.36l-40.4,3.13,6.28,5.77L606.6,532.69Zm453.22-25.8-1.84-3.16L937.34,514.19l-40.59,5.73,1.37,2.85,1.49,3.12,37.73-5.34,118.77-16.82ZM894.4,565.49l-81.94,33.82-12.3-48-67.89-67.78-11.49,1.41L789,553.68,801.76,605l-16.85,22.41L796,630l16.71-22.46,84.85-35.21ZM438.92,683.31h0l-6.22.61h0l-19.14,1.87,25.24-105.73,32.26-2.51-6.44-6-72.91,5.64L307,583.69l9.59-28.41,89.49-7,31.26-2.44-6.16-5.79-21.84,1.69-90.56,7,10.1-29.92,73.87-5.5-5.92-5.55L331,512.71l12.82-38-10.26-2-24.75,71.72h0L307.52,548l-4.38,12.69L254.59,701.31,196.15,707,106,693.3,100.68,701,191,714.86l1.15.18,1.31-.13,136.25-13.36,177.42-17.41-.32,9.91-2.1,64.46-.46,13.91,13.37-1.37.34-13.34,1.55-62.18.31-12.63,32.39-3.18.21-7.49ZM267.7,700l37-109.56,59.36-4.61L332.27,693.72Zm77.55-7.57,14.95-52.08h0l15.92-55.45L388.3,584l38.5-3L400.67,687.05Zm1266-168.74-1.06-3.41-6.83-22-62.21,7.32-2.63.31h0l-83.74,9.85-4.93-5.14-52.52-54.73,24.52-1.49,60.76-3.66,2.67-.16h0l85.23-5.15-8.6-2.9-5.85-2-137,8.24-27,1.62-23-24-10.54.63,23.24,24.43-86.57,12.21-27.82-31.16-7.32.44h-.18l-3.15.19,28.27,32-118.91,16.76-97.43,13.74,1.28,2.16,2.15,3.63,95.38-13.5,122.37-17.33L1316.75,501,1175.23,521.8l-83.75,12.3,3.62,6.1,81.59-12,145.13-21.41,11.32,12.79h0l1.3,1.46h0l12.15,13.73h0l1.32,1.5h0l37.91,42.85,2.11-1.61,2.27-.32,5.59-.79-17.58-19.68h0l-1.38-1.53h0l-44.58-49.94,88.23-13,42.37,44.54,4.27,4.49,1.45,1.51h0l19.58,20.58,5.35-.76,5.42-.76-38.49-40.13,80.08-9.46h0l3-.36,50.92-6,12.32,40.7,6.75-.95,5,1.6Zm-284.12-24.23-27.05-30.31,86.8-12.29,28.24,29.68Zm-977.39-73.8-10.94,31.68,10.16,2,10.3-30.51Zm587.59-27.91-37.67,9L803,429.8l4.48,2.1,3.88,1.82L900,412.5l2.38-.57h0l34.94-8.36L1055,375.42l3.3-6.45Zm617.27-16.46-67.43-6.71,1,2.95h0l.73,2.17,69.38,6.93Zm30.92,45.06-15.1,10.17,5,1.67,5.11,1.71,9.76-6.63ZM545.87,352.58l-5.75,4.5L587.69,363,528.31,406l45.49,8.72-26.53,16.51h0l-1.85,1.16h0L496.23,463l8.64,2.82L584,416.22,585.9,415l4.89-3.06-46.65-8.9,53.37-38.82,95.36,11.93,3.12-4.9Zm918.29-1.86-1.58-4.88-92.31,5-70,3.83L1286,339.85l-10,.51,14.18,14.9L1202.64,360l-13.59-15.21-10,.51,13.5,15.26L1139,363.51,1075.13,367l-2.59,5.19,67.62-3.7,56.57-3.1L1213,383.8l1.1,1.23h0l15.18,17.16h0l1.13,1.27,19.31,21.82,10.59-.63-35.88-40.18-1.1-1.24h0l-16.45-18.42,87.82-4.81,17.53,18.43,1.17,1.23,37.66,39.57,10.48-.62-37.9-39.5-1.18-1.23-17.68-18.43,67.88-3.72Zm63.66-8.44L1477.27,345l.83,2.49.81,2.39,52.19-2.86ZM496.21,346.4l22.67-25,.48-.53.53-.59,22.43-24.72-4.48-.43-4.66-.44-1.71,1.86h0L485.23,347.1,449.49,367,385.9,347.26l60.35-36.91L424,294l-8.35,3,18.66,13.78L371.4,349l70.72,22-34.45,19.16-76.85-24.57L327.13,371l72.92,23.43-42,23.38,8.11,2.64,82.94-46.37,2.42-1.35h0l39.13-21.88,13,1.62,12.58,1.58,5.82-4.48-16-2ZM1090,307l-68.11,3.18-10.71-34.66,5.82-.23-10.92-3.89-48.93,1.87-2.83.1-17,.65-51.75,2-1.76-10.05L875,269.09l1.21,7.24-24.09.92-13.63,4.87,69.23-2.66,2.36-.09,27.3-1.05,17.95-.69,9.78,35.19-27.73,1.3-17.25.81h0l-2.43.11-55.84,2.62,3.08,4.49,72.44-3.41,29-1.36,8,28.68,9.9-.51L976,316.92l37.64-1.77,8.57,28.47,9.86-.5-8.77-28.42,64.3-3Zm-115.31,5.4-10-35.1,37.13-1.42,10.47,34.76Zm-361-45-39.25-3.53-3.75-.33-21.78-2-27-2.43L512,262.61l34.81,3.14,11.87,1.07L541,286.17l9.08.85,17.6-19.39,54.46,4.91,2-1.51ZM1154,305.52l-7.75,2.77,24.57,27.77,10-.51Zm63.65-22.71-9.45,3.37,1,47.92,9.9-.5Zm169.15-11.6-11.9-4.24h-7.82l-.67-3.05-10.13-3.61,1.43,6.68-29.17.05-53.07.11-.43-4.84-9.1,3.25.13,1.6h-4.65l-12,4.3,17,0,4.88,59.5,5-.25,4.82-.25-5.29-59,54.82-.1,27.95-.06,11.67,54.65,4.86-.25,4.86-.25-12-54.16Zm-61.16-21.83h-14.35l-11.61,4.15h37.57Z"/><polygon class="cls-8" points="287.04 745.3 258.3 755.55 258.29 755.56 151.5 763.73 150.55 763.61 65.19 752.74 70.82 744.54 155.75 755.31 287.04 745.3"/><polygon class="cls-8" points="396.71 736.94 394.04 765.35 381.22 760.78 382.72 746.03 347.47 748.73 328.91 742.1 396.71 736.94"/><path class="cls-3" d="M552.3,780.06l-2.9.3-1.13,40,34.09,12.16.47-51.76Zm-47-205.17-6.56-6-27.88-25.61-6.28-5.77-28.93-26.56-6-5.54L428.12,504l-34.87-32,28.8-22.53-20.86-6.86L373.34,464,349,459.33h0l-10.16-2-62.63-12.08-9.82,14.31,67.15,13.11,10.26,2,22.45,4.38,30.59,28.74,5.92,5.55,14.12,13.26,14.31,13.44,6.16,5.79,27.29,25.63,6.44,6,64.6,60.67,1.51,1.42h0l15.78,14.82-.5,17.77-.21,7.49h0l-.55,19.55-1.6,56.51-.33,12,4.12-.42,29.07.7.13-14.22.45-50.83.24-26.34.07-7.47.2-22Zm81.44-275.1L555.31,324l-1.4,1.08h0L522,349.61l-5.82,4.48L494.5,370.77l-38.64,29.74h0l-2.39,1.84h0l-42.55,32.75,20.8,6.79,33.93-26.56h0l1.54-1.2h0l9.35-7.32,63.57-49.74,5.75-4.5,32-25h0l1.39-1.08,31.2-24.41ZM624.09,271l-2,1.51-24.63,19,23.6,2.23L642,277.41Z"/><path class="cls-9" d="M1682.58,567.8l-64-20.61-5-1.6-6.75.95L1533.6,556.9h0l-3.16.45h0l-31.5,4.45-5.42.76-5.35.76-11.26,1.59-81.1,11.47-5.59.79-2.27.32-2.11,1.61L1304,641.38l-39.49,6-6.35,1L1206,656.25l-38.57,5.85-25.29-42.62h0l-2.21-3.72-25-42.13-1-1.6-9.17-15.45-.93-1.57-8.78-14.8-3.62-6.1-19.37-32.64-2.15-3.63-1.28-2.16-29.32-49.41,117-7,100.4-6,3.15-.19h.18l7.32-.44,91.15-5.48,10.54-.63,37.71-2.26,85.44-5.13,63.83,21.51,5.85,2,8.6,2.9,36.55,12.31-8-11.61h0l-18.57-6.22-5.11-1.71-5-1.67L1500,413l-11.14-33.25-.73-2.17h0l-1-2.95-8.27-24.69-.81-2.39-.83-2.49-5-14.75L1518,328l-6.34-9.23-42.48,2.16-7.72-23-16.29-5.82,9.57,29.56-74.75,3.8-4.86.25-4.86.25-12.12.61-77,3.92-4.82.25-5,.25-29.21,1.49-2.46.13h0l-20.5,1-9.9.5-25.2,1.29h0l-2.47.12-.75,0-10,.51L1133.18,338l-44.67,2.27,16.75-33.49-12.78-4.56L1090,307l-2.41,4.7-15,29.39-40.49,2.06-9.86.5-38,1.93-9.9.51-36.95,1.88-52.94,2.69-19.5-28.48-3.08-4.49-.89-1.3-93.65-8.84-20.48,7.31-35.2-12.57-90.5-8.53-23.6-2.23L550.07,287l-9.08-.85-4.14-.39-71-6.7-20.4,7.28,87,8.27.74.07,4.66.44,4.48.43,44.41,4.22,23.73,2.26,122.11,11.61-17.12,26.95-.74,1.17L696,371.29l-3.12,4.9-8.18,12.89,40.71,19.28,112.72,53.37L709.6,477.46l-6,.73-2.73.34-114.13,14-28.48-9.3h0l-2.21-.72-51.21-16.71L496.23,463l-41-13.37-23.53-7.68-20.8-6.79-44.78-14.62L358,417.85,306.54,401l-5.84,8.52,49.05,16.13,9.52,3.13,41.92,13.78,20.86,6.86,28.58,9.4,127,41.75,23.76,26.27,5.25,5.81,23.53,26,1.86,2,3.62,4,38.28,42.32,2.83,3.13,2,2.22,1,1.06,29.82,33-2,10.6-1.41,7.54-5.76,30.84-7.28,38.93-6.77,36.14-43.5-1.06L582.94,768l-29.07-.7-4.12.42-32.11,3.31-13.37,1.37-70.17,7.23,27.52,9.82,30.82-3.2,18.29-1.9,38.67-4,2.9-.3,30.53.74,57.06,1.4,44,1.08-8.69,46.5,21.84-7.8,6.71-38.22,66.35,1.62,13.27.33,14.33.35,33.67-12L706,771l6.56-37.33,7-39.92,8.82-50.25L683,594,596.89,500.2l110.62-13.62,13.27-1.64,11.49-1.41,117.55-14.48,44.58,96.44,3.14,6.81,39.8,86.12,19.74,42.71,0,4.2.3,25.42.15,12.7,26.23,9.36-.24-8.79-.22-8.3-.23-8.44-.5-18.58-.07-2.53,226.91-34.75,104-15.93h0l6.64-1,3.28-2.54L1404,589.6l79.5-11.35,128-18.27,3.69-.52,8.84,2.87,70.42,22.86ZM1075.13,367l8.39-16.76,51.86-2.66,43.62-2.24,10-.51,87-4.46,10-.51,76.81-3.94,95-4.87,4.79,14.8,1.58,4.88,6.21,19.19.41,1.26,13,40.15-81,4.84-41.22,2.46-10.48.62-90.75,5.42-10.59.63L1154.46,431l-114.75,6.85,12.4-24.78.68-1.38h0l9.21-18.42.67-1.34,9.87-19.73ZM811.31,433.72l-3.88-1.82L803,429.8l-74.47-34.88-20.4-9.55,35.81-57.84,7.49-12.09,94.29,9,24.58,36.76,38.16-2,28.93-1.48,130.12-6.67L1058.28,369l-3.3,6.45-32.64,63.76-85,10.4-2.06.25h0l-2.66.33h0l-68.33,8.36Zm167.1,257-20.69-43.28-1.83-3.85h0l-10.08-21.08-.81-1.7h0l-7.65-16L918.88,566.2,917.36,563l-1.49-3.14-16.26-34-1.49-3.12-1.37-2.85-8.65-18.11-.69-1.45h0l-16.22-33.94,66.15-8.15,86.16-10.61L1042.28,480h0l.82,1.41h0l9.63,16.56,1.84,3.16,1.54,2.65,19.05,32.77,2,3.5,1.52,2.62L1110.34,597l1,1.65,11.46,19.71h0l2.17,3.74,24.83,42.69ZM365.71,314.83l-1.81,2.62,7.57-3.85.94-1.16ZM40.92,788.12l-8.92,13,68.7,10.68L129,801.7Zm1739.13-78.28h-312l-.93.13-64.07,8.69-6.33.87-6.35.86-57.93,7.86h0l-3.39.45-103.28,14-36,4.89-12.67,1.72-147,20,26.56,9.48L1179.64,762l12.78-1.75,36.21-5,161.9-22.14,16.3-2.23,1-.13,66-9H1788.2Z"/><polygon class="cls-10" points="1874.69 847.75 1783.06 815.04 1562.24 736.23 1555.01 721.71 1549.09 709.84 1531.61 674.75 1508.66 628.68 1483.54 578.25 1476.9 564.91 1466.05 543.13 1465.24 541.52 1462.86 536.74 1449.86 510.64 1421.86 454.42 1419.06 448.82 1406.8 424.2 1402.79 416.16 1382.75 375.93 1382.12 374.67 1372.69 355.74 1370.27 350.88 1362.81 335.91 1358.14 326.52 1330.64 271.32 1328.51 267.05 1321.77 253.53 1319.71 249.38 1318.43 246.82 1325.61 249.38 1337.22 253.53 1356.25 260.32 1366.38 263.93 1374.87 266.97 1386.77 271.21 1445.16 292.05 1461.45 297.87 1508.98 314.83 1511.65 318.71 1517.99 327.95 1527.82 342.28 1531.1 347.06 1554.61 381.32 1558.28 386.66 1585.53 426.38 1590.28 433.3 1599.09 446.15 1599.1 446.15 1607.07 457.76 1652.36 523.77 1654.78 527.3 1682.58 567.8 1694.52 585.19 1748.94 664.5 1754.13 672.07 1757.18 676.51 1780.05 709.84 1788.2 721.71 1874.69 847.75"/><polygon class="cls-10" points="1249.79 847.75 1056.59 778.79 1030.03 769.31 983.81 752.81 957.58 743.45 937.34 736.23 937.34 246.82 1006.11 271.37 1017.03 275.26 1092.48 302.19 1105.26 306.75 1127.89 314.83 1133.18 337.97 1135.38 347.57 1139.02 363.5 1140.16 368.48 1144.51 387.5 1144.8 388.78 1148.86 406.51 1149.17 407.84 1154.46 430.98 1156.35 439.24 1166.11 481.93 1167.49 487.96 1175.23 521.8 1176.69 528.17 1180.13 543.21 1180.51 544.85 1184.15 560.78 1184.53 562.46 1194.82 607.43 1195.71 611.34 1205.99 656.25 1209.46 671.42 1211.52 680.41 1216.68 703 1218.69 711.78 1219.14 713.76 1225.77 742.74 1228.63 755.25 1244.74 825.65 1246.97 835.4 1249.79 847.75"/><polygon class="cls-10" points="746.8 314.83 743.89 327.53 728.48 394.92 725.4 408.36 709.6 477.46 707.51 486.58 682.95 593.97 678.72 612.44 678.45 613.61 667.62 660.98 665.88 668.57 658.89 699.14 650.46 735.98 642.8 769.47 639.89 782.2 624.9 847.75 582.36 832.56 548.27 820.4 491.09 799.99 480.06 796.05 461.62 789.47 434.1 779.65 394.04 765.35 381.22 760.78 347.47 748.73 328.91 742.1 328.91 742.1 312.45 736.23 313.18 734.75 325.01 711.02 329.73 701.55 360.2 640.38 360.2 640.37 388.3 583.98 391.7 577.14 406.06 548.31 409.32 541.77 416.85 526.64 428.13 504.02 450.63 458.86 455.25 449.58 471.66 416.62 472.35 415.23 472.36 415.23 476.55 406.82 494.5 370.77 503.6 352.51 506.04 347.62 519.09 321.43 519.36 320.88 531.46 296.57 531.47 296.56 531.47 296.56 532.44 294.63 536.85 285.78 546.83 265.75 548.94 261.51 556.25 246.82 591.21 259.3 591.21 259.3 593.16 260 613.72 267.33 624.09 271.03 641.95 277.41 711.6 302.26 746.8 314.83"/><polygon class="cls-11" points="1318.43 246.82 1127.89 314.83 1249.79 847.75 1562.24 736.23 1318.43 246.82"/><polygon class="cls-11" points="937.34 246.82 746.8 314.83 624.9 847.75 937.34 736.23 937.34 246.82"/><polygon class="cls-11" points="556.25 246.82 365.71 314.83 0 847.75 312.45 736.23 556.25 246.82"/><polygon class="cls-12" points="0 847.75 2.26 853.44 312.45 742.73 312.45 736.23 0 847.75"/><polygon class="cls-12" points="624.9 847.75 624.9 854.24 312.45 742.73 312.45 736.23 624.9 847.75"/><polygon class="cls-12" points="937.34 736.23 937.34 742.73 624.9 854.24 624.9 847.75 937.34 736.23"/><polygon class="cls-12" points="1249.79 847.75 1249.79 854.24 937.34 742.73 937.34 736.23 1249.79 847.75"/><polygon class="cls-12" points="1562.24 736.23 1562.24 742.73 1249.79 854.24 1249.79 847.75 1562.24 736.23"/><polygon class="cls-12" points="1874.69 847.75 1562.24 736.23 1562.24 742.73 1872.33 853.4 1874.69 847.75"/><path class="cls-13" d="M1169.8,154a153.95,153.95,0,1,0-307.89,0s-7,130,153.94,245.33C1176.83,284,1169.8,154,1169.8,154Zm-153.95,100a100,100,0,1,1,100-100A100,100,0,0,1,1015.85,253.94Z"/><path class="cls-14" d="M1015.85,40.77A113.18,113.18,0,1,0,1129,154,113.17,113.17,0,0,0,1015.85,40.77Zm0,213.17a100,100,0,1,1,100-100A100,100,0,0,1,1015.85,253.94Z"/><g id="Capa_2-2" data-name="Capa 2"><g class="cls-15"><g class="cls-15"><g class="cls-16"><g class="cls-15"><path class="cls-17" d="M98.83,515.32l-3.77-13.86a6.63,6.63,0,0,0,.52.54l3.77,13.85c-.18-.17-.36-.35-.52-.53"/><path class="cls-18" d="M99.35,515.85,95.58,502a12.06,12.06,0,0,0,5.1,2.75l3.76,13.86a12.21,12.21,0,0,1-5.09-2.76"/><path class="cls-17" d="M104.44,518.61l-3.76-13.86a16,16,0,0,0,2.33.46l3.77,13.85a15.12,15.12,0,0,1-2.34-.45"/><path class="cls-19" d="M106.78,519.06,103,505.21a16.83,16.83,0,0,0,1.89.11l3.77,13.85a14.76,14.76,0,0,1-1.89-.11"/><path class="cls-20" d="M108.67,519.17l-3.77-13.85h.36c.44,0,.88,0,1.33-.08l3.76,13.85c-.44,0-.88.07-1.32.08h-.36"/><path class="cls-21" d="M110.35,519.09l-3.76-13.85c.51-.05,1-.13,1.54-.22l3.77,13.85c-.51.1-1,.17-1.55.22"/><path class="cls-22" d="M111.9,518.87,108.13,505c.49-.1,1-.21,1.45-.35l3.77,13.85a14.57,14.57,0,0,1-1.45.35"/><path class="cls-23" d="M113.35,518.52l-3.77-13.85c.47-.14.93-.29,1.39-.47l3.77,13.85a14.2,14.2,0,0,1-1.39.47"/><path class="cls-24" d="M114.74,518.05,111,504.2c.46-.18.91-.38,1.36-.61l3.76,13.86q-.66.33-1.35.6"/><path class="cls-25" d="M116.09,517.45l-3.76-13.86a15.81,15.81,0,0,0,1.38-.79l3.76,13.85a13.41,13.41,0,0,1-1.38.8"/><path class="cls-26" d="M117.47,516.65l-3.76-13.85a14.94,14.94,0,0,0,1.51-1.14L119,515.51a12.82,12.82,0,0,1-1.52,1.14"/><path class="cls-27" d="M119,515.51l-3.77-13.85a13.91,13.91,0,0,0,3.31-4.21l3.77,13.85a13.66,13.66,0,0,1-3.31,4.21"/></g></g></g><g class="cls-15"><g class="cls-28"><g class="cls-15"><path class="cls-22" d="M97.05,512.64l-3.76-13.86v0l3.77,13.85h0"/><path class="cls-21" d="M97.06,512.65,93.29,498.8c.06.19.14.38.22.57l3.77,13.85a5.59,5.59,0,0,1-.22-.57"/><path class="cls-20" d="M97.28,513.22l-3.77-13.85a6.36,6.36,0,0,0,.3.58l3.77,13.86a6.54,6.54,0,0,1-.3-.59"/><path class="cls-19" d="M97.58,513.81,93.81,500a5.6,5.6,0,0,0,.42.62L98,514.43c-.15-.2-.29-.41-.42-.62"/><path class="cls-17" d="M98,514.43l-3.77-13.86a5.28,5.28,0,0,0,.67.75l3.77,13.85a5.82,5.82,0,0,1-.67-.74"/><path class="cls-18" d="M98.67,515.17,94.9,501.32a1.07,1.07,0,0,0,.16.14l3.77,13.86-.16-.15"/></g></g></g><g class="cls-15"><g class="cls-29"><g class="cls-15"><path class="cls-27" d="M122.3,511.3l-3.77-13.85a23.14,23.14,0,0,0,2.76-11.56c-.25-8.09.61-16.27-.71-24.26a54.46,54.46,0,0,0-1.13-5.4l3.77,13.85a54.06,54.06,0,0,1,1.13,5.41c1.32,8,.45,16.16.71,24.25a23.14,23.14,0,0,1-2.76,11.56"/></g></g></g><g class="cls-15"><g class="cls-30"><g class="cls-15"><path class="cls-27" d="M26.31,523.52l-3.77-13.86c-.26-1-.49-1.94-.69-2.92a228.25,228.25,0,0,1-4.53-56.14c.11-3.26.11-4.81,1-5.57l3.77,13.85c-.87.76-.86,2.32-1,5.58a228.69,228.69,0,0,0,4.52,56.13c.21,1,.44,2,.7,2.93"/><path class="cls-26" d="M22.06,458.88,18.29,445a1,1,0,0,1,.2-.15l3.77,13.85-.2.15"/><path class="cls-25" d="M22.26,458.73l-3.77-13.85.19-.11,3.77,13.85a1.18,1.18,0,0,0-.19.11"/><path class="cls-24" d="M22.45,458.62l-3.77-13.85.23-.1,3.77,13.85-.23.1"/><path class="cls-23" d="M22.68,458.52l-3.77-13.85.27-.1L23,458.43l-.27.09"/><path class="cls-22" d="M23,458.43l-3.77-13.86.41-.09,3.76,13.85-.4.1"/><path class="cls-21" d="M23.35,458.33l-3.76-13.85c.23,0,.49-.08.77-.11l3.77,13.86-.78.1"/><path class="cls-20" d="M24.13,458.23l-3.77-13.86c.82-.08,1.88-.09,3.24-.12l60.73-1.2,2.17,0,3.77,13.86-2.17,0L27.37,458.1c-1.36,0-2.42,0-3.24.13"/><path class="cls-19" d="M90.27,456.88,86.5,443a16.72,16.72,0,0,1,1.87.08L92.14,457a16.72,16.72,0,0,0-1.87-.08"/><path class="cls-17" d="M92.14,457,88.37,443.1a7.38,7.38,0,0,1,.81.15l3.76,13.86a4.23,4.23,0,0,0-.8-.15"/><path class="cls-18" d="M92.94,457.11l-3.76-13.86a2.17,2.17,0,0,1,.94.5l3.77,13.86a2.15,2.15,0,0,0-1-.5"/><path class="cls-17" d="M93.89,457.61l-3.77-13.86a1.8,1.8,0,0,1,.19.21l3.77,13.86a1.29,1.29,0,0,0-.19-.21"/><path class="cls-19" d="M94.08,457.82,90.31,444a1.43,1.43,0,0,1,.14.2L94.22,458a1.43,1.43,0,0,0-.14-.2"/><path class="cls-20" d="M94.22,458l-3.77-13.86.12.23,3.76,13.86a1.63,1.63,0,0,0-.11-.23"/><path class="cls-21" d="M94.33,458.25l-3.76-13.86.1.27,3.77,13.86a1.69,1.69,0,0,0-.11-.27"/><path class="cls-22" d="M94.44,458.52l-3.77-13.86.06.19,3.76,13.86a1.05,1.05,0,0,0,0-.19"/></g></g></g><g class="cls-15"><g class="cls-31"><g class="cls-15"><path class="cls-18" d="M102.21,361.35,98.44,347.5c7.68,6.68,16.77,11.27,25.55,16.36,18.43,10.6,36.63,21.44,52,35.84l3.77,13.85c-15.39-14.39-33.58-25.24-52-35.83-8.77-5.1-17.86-9.69-25.54-16.37"/><path class="cls-17" d="M179.77,413.55,176,399.7l.69.64a54.32,54.32,0,0,1,5.45,6.12l3.77,13.86a52.62,52.62,0,0,0-5.46-6.12l-.68-.65"/><path class="cls-19" d="M185.91,420.32l-3.77-13.86a52,52,0,0,1,3.6,5.38l3.77,13.85a51.84,51.84,0,0,0-3.6-5.37"/><path class="cls-20" d="M189.51,425.69l-3.77-13.85a52.48,52.48,0,0,1,2.58,5l3.76,13.85a50.18,50.18,0,0,0-2.57-5"/><path class="cls-21" d="M192.08,430.69l-3.76-13.85c.55,1.22,1.05,2.47,1.5,3.74.12.34.23.68.35,1l3.76,13.85c-.11-.34-.22-.68-.34-1-.45-1.27-1-2.52-1.51-3.75"/><path class="cls-22" d="M193.93,435.46l-3.76-13.85q1.17,3.54,2.15,7.16l3.77,13.85q-1-3.6-2.16-7.16"/></g></g></g><g class="cls-15"><g class="cls-32"><g class="cls-15"><path class="cls-20" d="M96.68,354.33l-3.76-13.86q.36.75.78,1.47l3.76,13.86q-.42-.72-.78-1.47"/><path class="cls-19" d="M97.46,355.8,93.7,341.94a18.33,18.33,0,0,0,1.41,2.1l3.76,13.86a21.37,21.37,0,0,1-1.41-2.1"/><path class="cls-17" d="M98.87,357.9,95.11,344a20.24,20.24,0,0,0,2.23,2.49l3.77,13.85a21,21,0,0,1-2.24-2.48"/><path class="cls-18" d="M101.11,360.38l-3.77-13.85c.35.33.72.66,1.1,1l3.77,13.85c-.38-.31-.75-.63-1.1-1"/></g></g></g><g class="cls-15"><g class="cls-33"><g class="cls-15"><path class="cls-22" d="M94.82,349.14l-3.76-13.85c.17.63.36,1.26.56,1.88L95.39,351c-.21-.62-.39-1.25-.57-1.88"/><path class="cls-21" d="M95.39,351l-3.77-13.85c.35,1,.74,2.07,1.2,3.09l3.77,13.85a30.77,30.77,0,0,1-1.2-3.09"/><path class="cls-20" d="M96.59,354.11l-3.77-13.85a2,2,0,0,0,.1.21l3.76,13.86-.09-.22"/></g></g></g><g class="cls-15"><g class="cls-34"><g class="cls-15"><path class="cls-27" d="M120.56,353.57l-3.77-13.85a4.37,4.37,0,0,1-.12-1.32c.43-10.41.23-20.78-.31-31.17a17,17,0,0,0-.54-3.67l3.76,13.85a16.43,16.43,0,0,1,.55,3.67c.54,10.39.73,20.76.31,31.17a4.33,4.33,0,0,0,.12,1.32"/></g></g></g><g class="cls-15"><g class="cls-35"><g class="cls-15"><path class="cls-19" d="M183.81,286.64l-3.76-13.86c.76,1.08,1.48,2.19,2.15,3.33L186,290q-1-1.71-2.16-3.33"/><path class="cls-20" d="M186,290l-3.77-13.86a43.88,43.88,0,0,1,2.13,4.15l3.77,13.85A46.19,46.19,0,0,0,186,290"/><path class="cls-21" d="M188.1,294.11l-3.77-13.85a41.17,41.17,0,0,1,1.57,4l3.77,13.85c-.46-1.37-1-2.72-1.57-4"/><path class="cls-22" d="M189.67,298.15,185.9,284.3c.24.73.47,1.48.67,2.22l3.77,13.86c-.2-.75-.43-1.49-.67-2.23"/></g></g></g><g class="cls-15"><g class="cls-36"><g class="cls-15"><path class="cls-27" d="M22.55,374.54l-3.77-13.85a107.4,107.4,0,0,1-3.65-23.34,154.46,154.46,0,0,1,2.54-37.08l3.77,13.85a154.51,154.51,0,0,0-2.54,37.09,106.71,106.71,0,0,0,3.65,23.33"/></g></g></g><g class="cls-15"><g class="cls-37"><g class="cls-15"><path class="cls-18" d="M157,268l-3.77-13.85c8.18,3.11,15.6,7.27,21.7,13L178.69,281c-6.11-5.77-13.53-9.92-21.7-13"/><path class="cls-17" d="M178.69,281l-3.77-13.85a50.16,50.16,0,0,1,5.13,5.64l3.76,13.86a49.33,49.33,0,0,0-5.12-5.65"/></g></g></g><g class="cls-15"><g class="cls-38"><g class="cls-15"><path class="cls-20" d="M115.78,260.43,112,246.58c.75,0,1.51,0,2.27,0L118,260.41l-2.26,0"/><path class="cls-19" d="M118,260.41l-3.76-13.85a111.78,111.78,0,0,1,12.68.75l3.77,13.85a111.82,111.82,0,0,0-12.69-.75"/><path class="cls-17" d="M130.73,261.16,127,247.31c3.46.4,6.91,1,10.31,1.71,1.54.34,3.06.73,4.57,1.14L145.61,264c-1.51-.42-3-.8-4.57-1.15q-5.11-1.1-10.31-1.71"/><path class="cls-18" d="M145.61,264l-3.77-13.86a96.2,96.2,0,0,1,11.38,3.94L157,268A96.15,96.15,0,0,0,145.61,264"/></g></g></g><path class="cls-39" d="M115.78,260.43A110.22,110.22,0,0,1,141,262.87,95.81,95.81,0,0,1,157,268c10.62,4.05,20,9.85,26.82,18.69a42.91,42.91,0,0,1,7.06,15.93c4.2,15.85,3,32.07,3.48,48.2,0,2.59-1.22,3-3.26,3l-33.82.66-33.68.66c-2.19.05-3.24-.57-3.15-2.86.42-10.41.23-20.78-.31-31.17-.31-6.3-3.14-10.08-9.55-11.76a8.77,8.77,0,0,0-2.42-.28,14.73,14.73,0,0,0-11,6.17A12.44,12.44,0,0,0,94.3,323c.14,2.64-1.63,5.15-1.51,7.65.38,8,.45,16.1,3.89,23.64a20.7,20.7,0,0,0,5.53,7c7.68,6.68,16.77,11.27,25.54,16.37,18.71,10.75,37.18,21.76,52.7,36.48a52.56,52.56,0,0,1,13.14,20.24,137.38,137.38,0,0,1,5.28,20.67c3.36,16.52,2.22,33.22,1.35,49.85a97.06,97.06,0,0,1-3.74,18.51C193.2,536.23,184.83,545,174,551.78a107.09,107.09,0,0,1-28.13,12.13c-6.62,1.84-13.49,2.07-20,4.27a13.78,13.78,0,0,1-4.14.61c-.77,0-1.56,0-2.35,0s-1.62,0-2.42,0a17.51,17.51,0,0,0-1.92.12c-2,.23-4,.35-5.93.39-8.75.17-17.34-1.37-25.77-2.91-15.82-2.87-30.46-8.88-42.51-19.55a47.89,47.89,0,0,1-15.21-26.21,228.69,228.69,0,0,1-4.52-56.13c.21-6.26,0-6.24,6.28-6.36l60.73-1.19c6.54-.13,6.64-.13,6.69,6.24l-.05,35.4c0,4.9,1.65,9.37,2.31,14.09a6.12,6.12,0,0,0,1.78,2.68c2.32,2.57,6.19,3.93,10.2,3.85a14.93,14.93,0,0,0,13.27-7.87,23.14,23.14,0,0,0,2.76-11.56c-.26-8.09.61-16.26-.71-24.25-1-6-2.52-11.9-7.49-16.45a168.56,168.56,0,0,0-23.7-17.41c-14-9-28.25-17.6-41.95-27-11.3-7.77-20.25-17.4-25.41-30.11a107.11,107.11,0,0,1-6.9-33.34,154.51,154.51,0,0,1,2.54-37.09,56.16,56.16,0,0,1,25.65-38.87c9-5.93,19-9.24,29.38-11.87,8.18-2.08,16.41-2.5,24.66-2.66l4.84-.07,4.9-.08C112.5,260.54,114.14,260.5,115.78,260.43Z"/><g class="cls-15"><g class="cls-40"><g class="cls-15"><path class="cls-27" d="M21.44,314.12l-3.77-13.85a55.63,55.63,0,0,1,19-33.91l3.77,13.85a55.66,55.66,0,0,0-19,33.91"/><path class="cls-26" d="M40.4,280.21l-3.77-13.85a56.77,56.77,0,0,1,6.69-5l.31-.21,3.77,13.86a3.28,3.28,0,0,0-.31.2,59.1,59.1,0,0,0-6.69,5"/><path class="cls-25" d="M47.4,275.05l-3.77-13.86A68.14,68.14,0,0,1,50,257.55l3.77,13.85a68.25,68.25,0,0,0-6.34,3.65"/><path class="cls-24" d="M53.74,271.4,50,257.55c2.34-1.18,4.72-2.23,7.15-3.18l3.77,13.85c-2.43.95-4.81,2-7.15,3.18"/><path class="cls-23" d="M60.89,268.22l-3.77-13.85c3.22-1.26,6.52-2.34,9.87-3.31l3.77,13.86c-3.35,1-6.65,2-9.87,3.3"/><path class="cls-22" d="M70.76,264.92,67,251.06q2.83-.81,5.71-1.54c1.32-.33,2.63-.62,3.94-.87l3.77,13.85c-1.31.25-2.63.54-3.94.88q-2.88.72-5.71,1.54"/><path class="cls-21" d="M80.41,262.5l-3.77-13.85c2.64-.51,5.27-.87,7.92-1.13l3.76,13.85c-2.64.26-5.28.62-7.91,1.13"/><path class="cls-20" d="M88.32,261.37l-3.76-13.85c4.26-.42,8.52-.57,12.8-.66l4.84-.07,4.9-.07c1.63,0,3.27-.08,4.91-.14l3.77,13.85c-1.64.07-3.28.11-4.91.14l-4.9.08-4.84.07c-4.28.08-8.55.23-12.81.65"/></g></g></g></g><g class="cls-15"><g class="cls-15"><g class="cls-41"><g class="cls-15"><path class="cls-19" d="M542.6,528.67l-3.76-13.85a6.58,6.58,0,0,0,.42.61L543,529.29a6.74,6.74,0,0,1-.42-.62"/><path class="cls-17" d="M543,529.29l-3.76-13.86a6,6,0,0,0,.71.8l3.77,13.85a6.75,6.75,0,0,1-.72-.79"/><path class="cls-18" d="M543.74,530.08,540,516.23a7.9,7.9,0,0,0,3.39,1.82l3.76,13.86a7.93,7.93,0,0,1-3.38-1.83"/><path class="cls-17" d="M547.12,531.91l-3.76-13.86a12,12,0,0,0,1.91.37L549,532.27a13.37,13.37,0,0,1-1.92-.36"/><path class="cls-19" d="M549,532.27l-3.77-13.85a18.56,18.56,0,0,0,2,.11l3.77,13.86a18.33,18.33,0,0,1-2-.12"/><path class="cls-20" d="M551.07,532.39l-3.77-13.86h.46l3.77,13.85h-.46"/></g></g></g><g class="cls-15"><g class="cls-42"><g class="cls-15"><path class="cls-22" d="M541.05,524.6l-3.77-13.85c.11.38.22.76.35,1.14l3.76,13.85c-.12-.37-.24-.75-.34-1.14"/><path class="cls-21" d="M541.39,525.74l-3.76-13.85a19.07,19.07,0,0,0,.8,2.06l3.76,13.85a21.4,21.4,0,0,1-.8-2.06"/><path class="cls-20" d="M542.19,527.8,538.43,514c.13.29.26.58.41.87l3.76,13.85c-.14-.28-.28-.57-.41-.87"/></g></g></g><g class="cls-15"><g class="cls-43"><g class="cls-15"><path class="cls-19" d="M551.53,532.38l-3.77-13.85H548l3.77,13.85h-.25"/><path class="cls-20" d="M551.78,532.38,548,518.53h.33c.36,0,.72,0,1.08-.07l3.77,13.86-1.08.06h-.33"/><path class="cls-21" d="M553.19,532.32l-3.77-13.86c.43,0,.86-.1,1.28-.18l3.77,13.85c-.42.08-.85.15-1.28.19"/><path class="cls-22" d="M554.47,532.13l-3.77-13.85a12.26,12.26,0,0,0,1.23-.3l3.77,13.86c-.4.11-.81.21-1.23.29"/><path class="cls-23" d="M555.7,531.84,551.93,518a12.48,12.48,0,0,0,1.22-.41l3.77,13.85c-.4.16-.81.3-1.22.42"/><path class="cls-24" d="M556.92,531.42l-3.77-13.85c.42-.17.83-.35,1.24-.55l3.76,13.85c-.4.2-.81.39-1.23.55"/><path class="cls-25" d="M558.15,530.87,554.39,517a14.2,14.2,0,0,0,1.3-.76l3.77,13.86c-.42.27-.86.52-1.31.75"/><path class="cls-26" d="M559.46,530.12l-3.77-13.86c.27-.17.53-.35.79-.55l.24-.19,3.77,13.85-.24.2-.79.55"/><path class="cls-27" d="M560.49,529.37l-3.77-13.85c2.16-1.87,3.31-6.1,3.32-12.55l3.77,13.85c0,6.45-1.16,10.69-3.32,12.55"/></g></g></g><polygon class="cls-44" points="446 550.01 442.23 536.16 442.25 521.39 446.02 535.25 446 550.01"/><g class="cls-15"><g class="cls-45"><g class="cls-15"><path class="cls-21" d="M692.21,462.55l-3.77-13.85q3.13,7.19,15,41.64t14.41,40.53l3.77,13.86q-2.58-6.09-14.41-40.53t-15-41.65"/></g></g></g><g class="cls-15"><g class="cls-46"><g class="cls-15"><path class="cls-19" d="M432.13,532l-3.77-13.85h.18L432.31,532h-.18"/><path class="cls-20" d="M432.31,532l-3.77-13.85h.24c.29,0,.59,0,.88-.06l3.77,13.86c-.3,0-.59,0-.88.05h-.24"/><path class="cls-21" d="M433.43,531.91l-3.77-13.86a8.81,8.81,0,0,0,1-.15l3.77,13.86c-.34.06-.69.11-1,.15"/><path class="cls-22" d="M434.46,531.76l-3.77-13.86c.34-.06.67-.14,1-.23l3.77,13.85q-.48.13-1,.24"/><path class="cls-23" d="M435.45,531.52l-3.77-13.85a10.28,10.28,0,0,0,1-.34l3.77,13.86c-.32.12-.65.23-1,.33"/><path class="cls-24" d="M436.43,531.19l-3.77-13.86c.34-.13.67-.28,1-.44l3.76,13.85a8.83,8.83,0,0,1-1,.45"/><path class="cls-25" d="M437.42,530.74l-3.76-13.85a9.69,9.69,0,0,0,1-.6l3.77,13.85a10.93,10.93,0,0,1-1.05.6"/><path class="cls-26" d="M438.47,530.14l-3.77-13.85a10.41,10.41,0,0,0,1.18-.89l3.77,13.85a10.13,10.13,0,0,1-1.18.89"/><path class="cls-27" d="M439.65,529.25l-3.77-13.85a10.59,10.59,0,0,0,2.47-3l3.77,13.85a10.93,10.93,0,0,1-2.47,3"/></g></g></g><g class="cls-15"><g class="cls-47"><g class="cls-15"><path class="cls-19" d="M424.34,528.34l-3.77-13.85a5.48,5.48,0,0,0,.35.49l3.76,13.85c-.12-.16-.23-.32-.34-.49"/><path class="cls-17" d="M424.68,528.83,420.92,515a7.52,7.52,0,0,0,.84.94l3.77,13.85a7.59,7.59,0,0,1-.85-.94"/><path class="cls-18" d="M425.53,529.77l-3.77-13.85a8.15,8.15,0,0,0,3.43,1.92L429,531.7a8.17,8.17,0,0,1-3.43-1.93"/><path class="cls-17" d="M429,531.7l-3.77-13.86a8,8,0,0,0,1.28.25L430.24,532a10.73,10.73,0,0,1-1.28-.25"/><path class="cls-19" d="M430.24,532l-3.77-13.86a8.1,8.1,0,0,0,1,.06L431.22,532c-.33,0-.66,0-1,0"/><path class="cls-20" d="M431.22,532l-3.76-13.85h.18l.68,0L432.09,532a5.17,5.17,0,0,1-.68,0h-.19"/><path class="cls-21" d="M432.09,532l-3.77-13.85h0L432.13,532h0"/></g></g></g><polygon class="cls-44" points="563.8 516.83 560.04 502.97 560.01 476.52 563.77 490.38 563.8 516.83"/><polygon class="cls-48" points="563.77 490.38 560.01 476.52 596.45 475.81 600.22 489.67 563.77 490.38"/><polygon class="cls-49" points="867.89 624.33 864.12 610.47 864.45 392.31 868.21 406.17 867.89 624.33"/><g class="cls-15"><g class="cls-50"><g class="cls-15"><path class="cls-27" d="M505.94,526.94l-3.77-13.85q-2.35-8.66-2.33-21.68l3.77,13.86q0,13,2.33,21.67"/></g></g></g><g class="cls-15"><g class="cls-51"><g class="cls-15"><path class="cls-22" d="M423,525l-3.77-13.86c.08.3.17.59.26.86l3.77,13.86c-.1-.28-.18-.57-.26-.86"/><path class="cls-21" d="M423.22,525.88,419.45,512q.23.68.48,1.26l3.77,13.86c-.17-.4-.34-.82-.48-1.26"/><path class="cls-20" d="M423.7,527.14l-3.77-13.86a8.53,8.53,0,0,0,.52,1l3.76,13.86c-.18-.31-.35-.65-.51-1"/><path class="cls-19" d="M424.21,528.14l-3.76-13.86.12.21,3.77,13.85-.13-.2"/></g></g></g><g class="cls-15"><g class="cls-52"><g class="cls-15"><path class="cls-27" d="M442.12,526.2l-3.77-13.85a26.1,26.1,0,0,0,3.35-13.45l3.77,13.85a26.05,26.05,0,0,1-3.35,13.45"/></g></g></g><g class="cls-15"><g class="cls-53"><g class="cls-15"><path class="cls-27" d="M387.76,536.06,384,522.21a42,42,0,0,1-1.3-11l3.77,13.86a42,42,0,0,0,1.3,11"/></g></g></g><polygon class="cls-44" points="386.46 525.06 382.69 511.2 382.73 492.26 386.5 506.12 386.46 525.06"/><polygon class="cls-17" points="273.37 530.62 269.61 516.76 284.97 515.63 288.74 529.48 273.37 530.62"/><polygon class="cls-44" points="445.47 512.75 441.7 498.9 441.75 463.79 445.52 477.64 445.47 512.75"/><polygon class="cls-49" points="780.68 626.03 776.92 612.18 736.97 380.15 740.74 394 780.68 626.03"/><polygon class="cls-44" points="563.81 464.48 560.04 450.62 560.08 428.05 563.85 441.9 563.81 464.48"/><g class="cls-15"><g class="cls-54"><g class="cls-15"><path class="cls-22" d="M262.5,523.1l-3.77-13.86c.07.25.14.49.22.73l3.77,13.86c-.08-.24-.16-.48-.22-.73"/><path class="cls-21" d="M262.72,523.83,259,510a10.14,10.14,0,0,0,.45,1.17L263.17,525a10.73,10.73,0,0,1-.45-1.16"/><path class="cls-20" d="M263.17,525l-3.77-13.85a9.74,9.74,0,0,0,.52,1L263.69,526a9.74,9.74,0,0,1-.52-1"/><path class="cls-19" d="M263.69,526l-3.77-13.85a9.64,9.64,0,0,0,.65,1L264.34,527a9.79,9.79,0,0,1-.65-1"/><path class="cls-17" d="M264.34,527l-3.77-13.86a9.31,9.31,0,0,0,.93,1L265.27,528a10.17,10.17,0,0,1-.93-1"/><path class="cls-18" d="M265.27,528l-3.77-13.85a9.12,9.12,0,0,0,3.87,2.12l3.77,13.85a9,9,0,0,1-3.87-2.12"/><path class="cls-17" d="M269.14,530.14l-3.77-13.85a12.69,12.69,0,0,0,1.93.37l3.77,13.85a12.69,12.69,0,0,1-1.93-.37"/><path class="cls-19" d="M271.07,530.51l-3.77-13.85a16.33,16.33,0,0,0,1.9.11L273,530.62a14.34,14.34,0,0,1-1.89-.11"/><path class="cls-20" d="M273,530.62l-3.76-13.85h.41l3.76,13.86H273"/></g></g></g><polygon class="cls-44" points="658.08 466 654.32 452.15 681.86 393.68 685.63 407.53 658.08 466"/><polygon class="cls-48" points="685.63 407.53 681.86 393.68 718.6 392.96 722.37 406.81 685.63 407.53"/><path class="cls-39" d="M692.21,462.55q3.13,7.2,15,41.65t14.41,40.53l-40.48.79-23-79.52,27.54-58.47,36.75-.72q-2.65,4.5-15,27.73T692.21,462.55Z"/><g class="cls-15"><g class="cls-55"><g class="cls-15"><path class="cls-56" d="M740.74,394,737,380.15c-.21-1.22-.47-2.42-.79-3.6L740,390.41c.32,1.17.58,2.37.79,3.59"/></g></g></g><g class="cls-15"><g class="cls-57"><g class="cls-15"><path class="cls-58" d="M540.44,441.27l-3.77-13.85.05,0,3.77,13.86,0,0"/></g></g></g><g class="cls-15"><g class="cls-59"><g class="cls-15"><path class="cls-60" d="M540.44,441.28l-3.77-13.85h0l3.77,13.85h0"/></g></g></g><g class="cls-15"><g class="cls-61"><g class="cls-15"><path class="cls-27" d="M563.85,441.9l-3.77-13.85a31.82,31.82,0,0,0-.87-8.1L563,433.81a31.68,31.68,0,0,1,.87,8.09"/></g></g></g><g class="cls-15"><g class="cls-62"><g class="cls-15"><path class="cls-27" d="M226.47,535.13l-3.77-13.85A42.9,42.9,0,0,1,221.36,510l3.77,13.85a42.9,42.9,0,0,0,1.34,11.31"/></g></g></g><g class="cls-15"><g class="cls-63"><g class="cls-15"><path class="cls-27" d="M386.5,506.12l-3.77-13.86a34.76,34.76,0,0,1,1.17-9.06,28.39,28.39,0,0,1,3.55-8.17,29,29,0,0,1,5.46-6.25l3.77,13.86a29.26,29.26,0,0,0-5.47,6.24,28.51,28.51,0,0,0-3.55,8.17,35.2,35.2,0,0,0-1.16,9.07"/><path class="cls-26" d="M396.68,482.64l-3.77-13.86.49-.4a42.78,42.78,0,0,1,4.08-3l3.76,13.85a42.65,42.65,0,0,0-4.07,3c-.17.13-.33.27-.49.41"/><path class="cls-25" d="M401.24,479.23l-3.76-13.85c1.11-.73,2.26-1.4,3.44-2,.61-.33,1.23-.65,1.85-1l3.77,13.86c-.62.31-1.24.64-1.85,1-1.18.62-2.33,1.3-3.45,2"/><path class="cls-24" d="M406.54,476.24l-3.77-13.86q3.06-1.54,6.23-2.82l.36-.14,3.76,13.86-.35.13q-3.18,1.29-6.23,2.83"/><path class="cls-23" d="M413.12,473.28l-3.76-13.86c2.61-1,5.44-2.1,8.52-3.22,2.77-1,4.39-1.63,4.9-1.78l3.77,13.86c-.51.15-2.14.75-4.91,1.77-3.07,1.12-5.9,2.21-8.52,3.23"/><path class="cls-22" d="M426.55,468.28l-3.77-13.86.12,0,3.77,13.86-.12,0"/><path class="cls-21" d="M426.67,468.25l-3.77-13.86h0l3.76,13.85h0"/><path class="cls-20" d="M426.69,468.24l-3.76-13.85h0l3.77,13.85h0"/></g></g></g><polygon class="cls-44" points="503.61 505.27 499.84 491.41 499.94 432.01 503.7 445.86 503.61 505.27"/><g class="cls-15"><g class="cls-64"><g class="cls-15"><path class="cls-23" d="M426.71,468.24l-3.77-13.85c.76-.27,1.5-.55,2.21-.83l3.77,13.86c-.71.28-1.45.55-2.21.82"/><path class="cls-24" d="M428.92,467.42l-3.77-13.86c1.9-.74,3.63-1.51,5.19-2.29l3.77,13.85c-1.56.79-3.29,1.55-5.19,2.3"/><path class="cls-25" d="M434.11,465.12l-3.77-13.85a38,38,0,0,0,3.47-2l3.77,13.86c-1,.67-2.2,1.33-3.47,2"/><path class="cls-26" d="M437.58,463.14l-3.77-13.86a24.56,24.56,0,0,0,2.61-1.93l3.77,13.85a24.59,24.59,0,0,1-2.61,1.94"/><path class="cls-27" d="M440.19,461.2l-3.77-13.85c.35-.3.68-.6,1-.91,2.91-2.93,4.35-7.09,4.36-12.48l3.77,13.85c0,5.4-1.45,9.56-4.36,12.48-.31.31-.63.61-1,.91"/></g></g></g><polygon class="cls-44" points="445.53 447.81 441.76 433.96 441.78 425.61 445.55 439.46 445.53 447.81"/><g class="cls-15"><g class="cls-65"><g class="cls-15"><path class="cls-20" d="M551.76,407.87,548,394l3.09,0,3.77,13.85-3.09,0"/><path class="cls-19" d="M554.85,407.84,551.08,394a110.24,110.24,0,0,1,12.43.68l3.77,13.85a110.24,110.24,0,0,0-12.43-.68"/><path class="cls-17" d="M567.28,408.52l-3.77-13.85a66.89,66.89,0,0,1,10,1.89l3.77,13.85a66.89,66.89,0,0,0-10-1.89"/><path class="cls-18" d="M577.26,410.41l-3.77-13.85a35.61,35.61,0,0,1,11.7,5.37,24.18,24.18,0,0,1,2.34,1.95l3.77,13.85a27.47,27.47,0,0,0-2.34-2,35.81,35.81,0,0,0-11.7-5.37"/><path class="cls-17" d="M591.3,417.73l-3.77-13.85a23.6,23.6,0,0,1,2.63,2.92l3.77,13.86a24.52,24.52,0,0,0-2.63-2.93"/><path class="cls-19" d="M593.93,420.66l-3.77-13.86a26.53,26.53,0,0,1,1.75,2.62l3.76,13.85a23.68,23.68,0,0,0-1.74-2.61"/><path class="cls-20" d="M595.67,423.27l-3.76-13.85a27.16,27.16,0,0,1,1.38,2.69L597.06,426a27.28,27.28,0,0,0-1.39-2.69"/><path class="cls-21" d="M597.06,426l-3.77-13.85a29.43,29.43,0,0,1,1.15,3L598.21,429c-.34-1-.73-2-1.15-3"/><path class="cls-22" d="M598.21,429l-3.77-13.85c.2.6.39,1.21.56,1.84l3.77,13.86c-.17-.63-.36-1.25-.56-1.85"/></g></g></g><g class="cls-15"><g class="cls-66"><g class="cls-15"><path class="cls-27" d="M445.55,439.46l-3.77-13.85a15,15,0,0,0-.47-3.89l3.77,13.86a14.89,14.89,0,0,1,.47,3.88"/></g></g></g><g class="cls-15"><g class="cls-67"><g class="cls-15"><path class="cls-27" d="M503.7,445.86,499.94,432q0-18.4,10.82-27.68l3.77,13.86q-10.8,9.27-10.83,27.67"/><path class="cls-26" d="M514.53,418.19l-3.77-13.86.63-.53a30.59,30.59,0,0,1,2.54-1.84l3.77,13.85a30.67,30.67,0,0,0-2.54,1.85l-.63.53"/><path class="cls-25" d="M517.7,415.81,513.93,402a35.18,35.18,0,0,1,3.2-1.84L520.9,414a36.21,36.21,0,0,0-3.2,1.84"/><path class="cls-24" d="M520.9,414l-3.77-13.85q1.73-.87,3.63-1.62l3.77,13.86c-1.27.5-2.48,1-3.63,1.61"/><path class="cls-23" d="M524.53,412.36l-3.77-13.86c1.39-.54,2.85-1,4.39-1.48l3.77,13.86c-1.54.44-3,.94-4.39,1.48"/><path class="cls-22" d="M528.92,410.88,525.15,397q2.69-.76,5.68-1.35l3.76,13.86q-3,.57-5.67,1.35"/><path class="cls-21" d="M534.59,409.53l-3.76-13.86c2.48-.47,5.13-.85,7.93-1.13l3.77,13.86c-2.81.27-5.45.65-7.94,1.13"/><path class="cls-20" d="M542.53,408.4l-3.77-13.86c2.91-.28,6-.46,9.23-.52l3.77,13.85c-3.25.07-6.33.24-9.23.53"/></g></g></g><path class="cls-39" d="M551.76,407.87q25.79-.5,37.2,7.91t11.38,28.48l0,19.5-36.49.72,0-22.58q0-8.36-2.59-11.9c-1.77-2.39-4.91-3.52-9.54-3.44h-.62a11.57,11.57,0,0,0-7.62,3.06q-2.94,2.89-3,11.65c0,.18,0,.36,0,.53l-.11,75.76a22,22,0,0,0,2.28,11.11q2.32,3.84,8.93,3.71h.58a14.1,14.1,0,0,0,8.14-2.81c2.31-1.76,3.54-6.06,3.56-12.75l0-26.44,36.45-.71,0,12.82a85.52,85.52,0,0,1-3.36,25.4,30.39,30.39,0,0,1-12.89,16.84q-9.57,6.18-32.39,6.63c-.84,0-1.67.07-2.51.08a80.89,80.89,0,0,1-23.51-3,29,29,0,0,1-16-12.92q-5.92-9.64-5.88-30.26l.09-59.41q0-18.93,11.46-28.2T551.76,407.87Z"/><polygon class="cls-44" points="386.56 461.84 382.79 447.99 382.82 431.54 386.58 445.4 386.56 461.84"/><g class="cls-15"><g class="cls-68"><g class="cls-15"><path class="cls-17" d="M476.41,419.6l-3.77-13.86a16.52,16.52,0,0,1,1.21,1.39L477.61,421a13.63,13.63,0,0,0-1.2-1.39"/><path class="cls-19" d="M477.61,421l-3.76-13.86a18.55,18.55,0,0,1,1.15,1.73l3.76,13.85a15.59,15.59,0,0,0-1.15-1.72"/><path class="cls-20" d="M478.76,422.71,475,408.86a19.08,19.08,0,0,1,1,2l3.77,13.85a20.18,20.18,0,0,0-1-2"/><path class="cls-21" d="M479.77,424.68,476,410.83a22.33,22.33,0,0,1,.94,2.43l3.77,13.85a24.59,24.59,0,0,0-.94-2.43"/><path class="cls-22" d="M480.71,427.11l-3.77-13.85c.18.52.34,1.07.49,1.63l3.77,13.86c-.15-.57-.32-1.11-.49-1.64"/></g></g></g><polygon class="cls-44" points="620.94 546.7 617.17 532.85 617.42 364.72 621.19 378.57 620.94 546.7"/><polygon class="cls-39" points="621.19 378.57 657.63 377.86 657.38 545.98 620.94 546.7 621.19 378.57"/><polygon class="cls-48" points="621.19 378.57 617.42 364.72 653.86 364 657.63 377.86 621.19 378.57"/><polygon class="cls-69" points="843.98 316.42 840.21 302.57 926.33 300.88 930.1 314.73 843.98 316.42"/><polygon class="cls-49" points="805.33 503.02 801.57 489.17 840.21 302.57 843.98 316.42 805.33 503.02"/><path class="cls-39" d="M482.71,549.29,446,550l0-14.77a26.06,26.06,0,0,1-10.3,12.15A35,35,0,0,1,418,552.6h-1.22q-16.23.31-23.27-6.37t-7.06-21.17l0-18.94a35.2,35.2,0,0,1,1.16-9.07,28.51,28.51,0,0,1,3.55-8.17,29.2,29.2,0,0,1,6-6.65,44.37,44.37,0,0,1,7.52-5,79.32,79.32,0,0,1,8.08-3.8c2.71-1.05,5.66-2.19,8.87-3.36s4.88-1.8,5.07-1.81q10.11-3.62,14.46-7.95c2.91-2.92,4.35-7.08,4.36-12.48l0-8.35q0-10.86-11.85-10.63-11.58.24-11.58,15.6l0,16.72-35.54.69,0-16.44q0-18.39,11.76-26.83t35.71-9l1.53,0a134.19,134.19,0,0,1,23.63,1.63,31.11,31.11,0,0,1,17.2,8.45q6.48,6.54,6.45,24.39ZM442.12,526.2a26.05,26.05,0,0,0,3.35-13.45l0-35.11a11.26,11.26,0,0,1-1.44,1c-.78.47-3.55,2.11-8.39,4.89a30.57,30.57,0,0,0-10.44,9,17.29,17.29,0,0,0-3.18,9.54l0,14.48q0,8.09,2.29,11.8a8.18,8.18,0,0,0,7.07,3.66c.24,0,.48,0,.72,0h.42a11.14,11.14,0,0,0,9.57-5.76"/><g class="cls-15"><g class="cls-70"><g class="cls-15"><path class="cls-27" d="M386.58,445.4l-3.76-13.86q0-16.87,9.9-25.38L396.49,420q-9.89,8.49-9.91,25.38"/><path class="cls-26" d="M396.49,420l-3.77-13.86c.59-.5,1.21-1,1.85-1.45.4-.29.82-.57,1.24-.85l3.77,13.86c-.43.27-.84.56-1.24.85-.65.46-1.26.94-1.85,1.45"/><path class="cls-25" d="M399.58,417.72l-3.77-13.86a36.22,36.22,0,0,1,3.31-1.9l3.77,13.86a34,34,0,0,0-3.31,1.9"/><path class="cls-24" d="M402.89,415.82,399.12,402c1.18-.59,2.42-1.15,3.74-1.66l3.76,13.85c-1.31.52-2.55,1.07-3.73,1.67"/><path class="cls-23" d="M406.62,414.15l-3.76-13.85c1.42-.56,2.92-1.06,4.5-1.52l3.77,13.85q-2.37.69-4.51,1.52"/><path class="cls-22" d="M411.13,412.63l-3.77-13.85c1.84-.53,3.77-1,5.81-1.38l3.77,13.85q-3.06.58-5.81,1.38"/><path class="cls-21" d="M416.94,411.25l-3.77-13.85c2.55-.5,5.26-.88,8.14-1.16l3.76,13.85q-4.31.42-8.13,1.16"/><path class="cls-20" d="M425.07,410.09l-3.76-13.85q4.24-.42,9-.53l1.53,0q1.44,0,2.88,0l3.77,13.86c-1,0-1.92,0-2.88,0l-1.53,0c-3.15.08-6.14.25-9,.53"/><path class="cls-19" d="M438.46,409.5l-3.77-13.86a135.72,135.72,0,0,1,15.36.91l3.77,13.86a133.44,133.44,0,0,0-15.36-.91"/><path class="cls-17" d="M453.82,410.41l-3.77-13.86q2.7.31,5.39.75a30.64,30.64,0,0,1,3.83.81L463,412a34.7,34.7,0,0,0-3.83-.81q-2.68-.42-5.39-.74"/><path class="cls-18" d="M463,412l-3.77-13.85a31,31,0,0,1,13,7.3l3.77,13.86A31,31,0,0,0,463,412"/><path class="cls-17" d="M476.07,419.27l-3.77-13.86.34.33,3.77,13.86-.34-.33"/></g></g></g><g class="cls-15"><g class="cls-71"><g class="cls-15"><path class="cls-20" d="M374.94,412.42l-3.77-13.85h.57l3.77,13.85h-.57"/><path class="cls-19" d="M375.51,412.41l-3.77-13.85a26.38,26.38,0,0,1,3.08.18l3.77,13.86a28.77,28.77,0,0,0-3.08-.19"/><path class="cls-17" d="M378.59,412.6l-3.77-13.86c.66.08,1.31.18,2,.31l3.77,13.85c-.65-.12-1.3-.23-2-.3"/></g></g></g><g class="cls-15"><g class="cls-72"><g class="cls-15"><path class="cls-20" d="M374.19,412.44l-3.77-13.85.75,0,3.77,13.85-.75,0"/></g></g></g><g class="cls-15"><g class="cls-73"><g class="cls-15"><path class="cls-27" d="M340.63,431l-3.77-13.85a27,27,0,0,1,7-9.36l3.77,13.85a27.06,27.06,0,0,0-7,9.36"/><path class="cls-26" d="M347.67,421.61l-3.77-13.85a28.07,28.07,0,0,1,3-2.23l3.77,13.85a29.5,29.5,0,0,0-3,2.23"/><path class="cls-25" d="M350.64,419.38l-3.77-13.85A29.8,29.8,0,0,1,349.5,404l3.77,13.85c-.91.46-1.78,1-2.63,1.51"/><path class="cls-24" d="M353.27,417.87,349.5,404l.23-.12,3.77,13.85-.23.12"/></g></g></g><g class="cls-15"><g class="cls-74"><g class="cls-15"><path class="cls-25" d="M353.5,417.75l-3.77-13.85.91-.47,3.77,13.85-.91.47"/><path class="cls-24" d="M354.41,417.28l-3.77-13.85c1.29-.65,2.6-1.24,3.93-1.76l3.77,13.85c-1.33.52-2.65,1.11-3.93,1.76"/><path class="cls-23" d="M358.34,415.52l-3.77-13.85c1.28-.5,2.58-.94,3.89-1.32l3.77,13.85c-1.32.38-2.61.82-3.89,1.32"/><path class="cls-22" d="M362.23,414.2l-3.77-13.85c1.3-.38,2.62-.69,4-1l3.77,13.85c-1.33.26-2.65.58-3.95.95"/><path class="cls-21" d="M366.18,413.25l-3.77-13.85c1.37-.26,2.75-.46,4.13-.6l3.77,13.86c-1.39.13-2.76.33-4.13.59"/><path class="cls-20" d="M370.31,412.66l-3.77-13.86c1.17-.11,2.33-.18,3.51-.2h.37l3.77,13.85h-.38c-1.17,0-2.34.09-3.5.21"/></g></g></g><polygon class="cls-44" points="225.13 523.82 221.36 509.96 221.49 423.84 225.25 437.69 225.13 523.82"/><polygon class="cls-44" points="306.33 552.83 302.57 538.97 302.77 401.07 306.54 414.92 306.33 552.83"/><polygon class="cls-48" points="306.54 414.92 302.77 401.07 334 400.45 337.77 414.31 306.54 414.92"/><path class="cls-39" d="M374.94,412.42a27,27,0,0,1,5.61.48l0,27.58a51.65,51.65,0,0,0-9.3-.66l-1.69.06q-14.17.27-20.37,7.64T342.89,473l-.12,79.13-36.44.72.21-137.91,31.23-.62L340.63,431a27.48,27.48,0,0,1,12.87-13.22,45.08,45.08,0,0,1,20.31-5.3h.38Z"/><polygon class="cls-48" points="262.03 415.79 258.27 401.94 285.17 401.41 288.94 415.26 262.03 415.79"/><polygon class="cls-44" points="211.67 437.95 207.91 424.1 207.94 408.49 211.7 422.35 211.67 437.95"/><polygon class="cls-75" points="211.7 422.35 207.94 408.49 224.42 402.61 228.19 416.46 211.7 422.35"/><polygon class="cls-48" points="233.71 391.3 229.94 377.44 258.3 376.89 262.07 390.74 233.71 391.3"/><polygon class="cls-44" points="228.19 416.46 224.42 402.61 229.94 377.44 233.71 391.3 228.19 416.46"/><path class="cls-39" d="M262.07,390.74l0,25.05,26.91-.53,0,21.18L262,437l-.13,80.51q0,13.37,11.53,13.15l15.37-1.14,0,21.45c-1.37.4-4.63,1.06-9.84,2a97.53,97.53,0,0,1-15.33,1.57c-13.52.26-23.27-2.06-29.33-7s-9.09-12.81-9.07-23.72l.12-86.13-13.58.26,0-15.6,16.49-5.89,5.52-25.16Z"/><polygon class="cls-69" points="213.21 328.8 209.44 314.94 763.86 304.07 767.63 317.92 213.21 328.8"/><polygon class="cls-49" points="213.15 370.21 209.38 356.36 209.44 314.94 213.21 328.8 213.15 370.21"/><path class="cls-76" d="M930.1,314.73l-.46,308.38-61.75,1.21.32-218.16L828.35,625.1l-47.66.93-40-232c-3.31-19.27-20.64-33.11-41-32.74l-486.6,8.95.06-41.41,554.42-10.88q4.38,17.73,18.88,92.59T805.33,503L844,316.42Z"/></g><g class="cls-15"><polygon class="cls-49" points="1024.61 619.21 1020.85 605.36 1020.87 587.54 1024.64 601.39 1024.61 619.21"/><g class="cls-15"><g class="cls-77"><g class="cls-15"><path class="cls-78" d="M1007.85,597.35l-3.77-13.85.12,0L1008,597.4l-.12,0"/><path class="cls-79" d="M1008,597.4l-3.77-13.86.12,0,3.77,13.85-.12,0"/><path class="cls-80" d="M1008.09,597.42l-3.77-13.85h.16l3.77,13.86h-.16"/><path class="cls-81" d="M1008.25,597.43l-3.77-13.86h.09a9.42,9.42,0,0,0,1.06-.06l3.77,13.86c-.35,0-.71,0-1.06.06h-.09"/><path class="cls-82" d="M1009.4,597.37l-3.77-13.86c.42,0,.84-.1,1.25-.18l3.77,13.85c-.42.08-.83.14-1.25.19"/><path class="cls-83" d="M1010.65,597.18l-3.77-13.85c.4-.08.8-.17,1.2-.29l3.76,13.86a12.09,12.09,0,0,1-1.19.28"/><path class="cls-84" d="M1011.84,596.9,1008.08,583c.4-.11.79-.25,1.18-.4L1013,596.5c-.38.15-.78.28-1.18.4"/><path class="cls-85" d="M1013,596.5l-3.76-13.86c.4-.16.8-.34,1.19-.53l3.77,13.85a12.93,12.93,0,0,1-1.2.54"/><path class="cls-86" d="M1014.22,596l-3.77-13.85a14.42,14.42,0,0,0,1.27-.73l3.76,13.85a12.13,12.13,0,0,1-1.26.73"/><path class="cls-87" d="M1015.48,595.23l-3.76-13.85a14.65,14.65,0,0,0,1.42-1.07l3.77,13.85a12.38,12.38,0,0,1-1.43,1.07"/><path class="cls-56" d="M1016.91,594.16l-3.77-13.85a13,13,0,0,0,3-3.69l3.77,13.85a12.88,12.88,0,0,1-3,3.69"/></g></g></g><g class="cls-15"><g class="cls-88"><g class="cls-15"><path class="cls-83" d="M996.7,589l-3.77-13.85c.1.36.21.71.32,1.05L997,590.08c-.12-.34-.22-.69-.32-1.05"/><path class="cls-82" d="M997,590.08l-3.77-13.85c.18.54.38,1,.59,1.53l3.77,13.85a15.22,15.22,0,0,1-.59-1.53"/><path class="cls-81" d="M997.61,591.61l-3.77-13.85c.2.43.4.84.63,1.23l3.77,13.85a10.12,10.12,0,0,1-.63-1.23"/><path class="cls-80" d="M998.24,592.84,994.47,579l.15.24a8.21,8.21,0,0,0,.51.75l3.77,13.85a8,8,0,0,1-.51-.74l-.15-.25"/><path class="cls-79" d="M998.9,593.83,995.13,580a9,9,0,0,0,.92,1l3.77,13.85a7.59,7.59,0,0,1-.92-1"/><path class="cls-78" d="M999.82,594.86,996.05,581a8.81,8.81,0,0,0,3.74,2l3.76,13.85a8.66,8.66,0,0,1-3.73-2"/><path class="cls-79" d="M1003.55,596.91l-3.76-13.85a12.35,12.35,0,0,0,1.81.35l3.76,13.85a11.37,11.37,0,0,1-1.81-.35"/><path class="cls-80" d="M1005.36,597.26l-3.76-13.85a16.56,16.56,0,0,0,1.77.1l3.76,13.85a14.53,14.53,0,0,1-1.77-.1"/><path class="cls-81" d="M1007.13,597.36l-3.76-13.85h.71l3.77,13.85h-.72"/></g></g></g><g class="cls-15"><g class="cls-89"><g class="cls-15"><path class="cls-56" d="M1019.89,590.47l-3.77-13.85a31.18,31.18,0,0,0,4-16.22l3.77,13.85a31.25,31.25,0,0,1-4,16.22"/></g></g></g><g class="cls-15"><g class="cls-90"><g class="cls-15"><path class="cls-56" d="M954.26,602.41l-3.77-13.86a50,50,0,0,1-1.54-13.3l3.77,13.85a49.68,49.68,0,0,0,1.54,13.31"/></g></g></g><polygon class="cls-49" points="952.72 589.1 948.95 575.25 948.98 552.3 952.75 566.16 952.72 589.1"/><polygon class="cls-49" points="1023.92 574.25 1020.15 560.4 1020.22 518.05 1023.99 531.9 1023.92 574.25"/><g class="cls-15"><g class="cls-91"><g class="cls-15"><path class="cls-56" d="M952.75,566.16,949,552.3a43.22,43.22,0,0,1,1.4-10.95,35,35,0,0,1,11-17.43l3.77,13.85a35,35,0,0,0-11,17.43,43.24,43.24,0,0,0-1.4,11"/><path class="cls-87" d="M965.16,537.77l-3.77-13.85.54-.46a57.68,57.68,0,0,1,4.91-3.59l3.76,13.86a53.5,53.5,0,0,0-4.9,3.59l-.54.45"/><path class="cls-86" d="M970.6,533.73l-3.76-13.86c1.35-.87,2.74-1.7,4.17-2.45.74-.4,1.47-.79,2.22-1.16L977,530.11c-.74.38-1.48.76-2.21,1.16q-2.14,1.14-4.18,2.46"/><path class="cls-85" d="M977,530.11l-3.76-13.85q3.69-1.87,7.56-3.41l2.55-1,3.77,13.86-2.56,1q-3.85,1.53-7.56,3.4"/><path class="cls-84" d="M987.11,525.7l-3.77-13.86c2.54-1,5.23-2,8.09-3.06,3.25-1.19,5.21-1.9,5.87-2.09l3.77,13.85c-.66.19-2.62.9-5.87,2.1-2.86,1-5.55,2.07-8.09,3.06"/><path class="cls-83" d="M1001.07,520.54l-3.77-13.85.17-.05,3.77,13.85-.17,0"/><path class="cls-82" d="M1001.24,520.49l-3.77-13.85h0l3.76,13.85h0"/><path class="cls-81" d="M1001.27,520.49l-3.76-13.85h0l3.76,13.86h0"/></g></g></g><g class="cls-15"><g class="cls-92"><g class="cls-15"><path class="cls-84" d="M1001.29,520.49l-3.76-13.86c1.13-.39,2.21-.79,3.25-1.2l3.77,13.86c-1,.4-2.13.8-3.26,1.2"/><path class="cls-85" d="M1004.55,519.29l-3.77-13.86a61.51,61.51,0,0,0,5.8-2.57l3.77,13.86q-2.62,1.32-5.8,2.57"/><path class="cls-86" d="M1010.35,516.72l-3.77-13.86a41.93,41.93,0,0,0,4-2.28l3.77,13.86a41.93,41.93,0,0,1-4,2.28"/><path class="cls-87" d="M1014.35,514.44l-3.77-13.86a28.8,28.8,0,0,0,3.07-2.28l3.77,13.86a30.23,30.23,0,0,1-3.07,2.28"/><path class="cls-56" d="M1017.42,512.16l-3.77-13.86c.48-.41.93-.83,1.35-1.25l3.77,13.85c-.42.43-.87.84-1.35,1.26"/></g></g></g><g class="cls-15"><g class="cls-93"><g class="cls-15"><path class="cls-56" d="M1018.77,510.9,1015,497.05c3.55-3.49,5.24-8.55,5.25-15.06l3.77,13.85c0,6.51-1.7,11.58-5.25,15.06"/></g></g></g><polygon class="cls-49" points="1024.02 495.84 1020.25 481.99 1020.27 471.9 1024.04 485.75 1024.02 495.84"/><g class="cls-15"><g class="cls-94"><g class="cls-15"><path class="cls-56" d="M1024,485.75l-3.77-13.85a17.85,17.85,0,0,0-.57-4.7l3.77,13.86a17.72,17.72,0,0,1,.57,4.69"/></g></g></g><polygon class="cls-49" points="952.83 512.69 949.06 498.84 949.09 479.01 952.86 492.87 952.83 512.69"/><g class="cls-15"><g class="cls-95"><g class="cls-15"><path class="cls-56" d="M952.86,492.87,949.09,479q0-20.36,12-30.62l3.76,13.85q-11.94,10.27-12,30.63"/><path class="cls-87" d="M964.83,462.24l-3.76-13.85q1.08-.93,2.25-1.77c.48-.35,1-.68,1.47-1l3.77,13.86c-.5.32-1,.66-1.47,1-.79.57-1.54,1.16-2.26,1.77"/><path class="cls-86" d="M968.56,459.47l-3.77-13.86a43.49,43.49,0,0,1,4-2.28l3.77,13.85a41.33,41.33,0,0,0-4,2.29"/><path class="cls-85" d="M972.54,457.18l-3.77-13.85a48.66,48.66,0,0,1,4.49-2L977,455.18c-1.57.62-3.06,1.28-4.48,2"/><path class="cls-84" d="M977,455.18l-3.76-13.85c1.7-.67,3.5-1.27,5.4-1.82l3.76,13.85q-2.83.83-5.4,1.82"/><path class="cls-83" d="M982.42,453.36l-3.76-13.85q3.27-.94,6.91-1.65l3.77,13.86c-2.43.46-4.73,1-6.92,1.64"/><path class="cls-82" d="M989.34,451.72l-3.77-13.86q4.53-.87,9.63-1.37L999,450.34c-3.4.34-6.61.79-9.63,1.38"/><path class="cls-81" d="M999,450.34l-3.77-13.85q5.31-.53,11.24-.64l2-.05,3.38,0,3.77,13.86c-1.13,0-2.25,0-3.38,0l-2,0c-4,.07-7.7.29-11.24.63"/><path class="cls-80" d="M1015.62,449.63l-3.77-13.86a160.52,160.52,0,0,1,18.22,1.08l3.76,13.86a157.94,157.94,0,0,0-18.21-1.08"/><path class="cls-79" d="M1033.83,450.71l-3.76-13.86q3.36.4,6.71.93a39.89,39.89,0,0,1,4.67,1l3.77,13.85a38.32,38.32,0,0,0-4.67-1q-3.35-.54-6.72-.93"/><path class="cls-78" d="M1045.22,452.62l-3.77-13.85a37.06,37.06,0,0,1,15.62,8.76l3.77,13.85a37.17,37.17,0,0,0-15.62-8.76"/><path class="cls-79" d="M1060.84,461.38l-3.77-13.85.47.45a18.75,18.75,0,0,1,1.47,1.69l3.76,13.85a16,16,0,0,0-1.47-1.69l-.46-.45"/><path class="cls-80" d="M1062.77,463.52,1059,449.67a19.59,19.59,0,0,1,1.38,2.07l3.77,13.86a21.49,21.49,0,0,0-1.39-2.08"/><path class="cls-81" d="M1064.16,465.6l-3.77-13.86c.43.75.84,1.54,1.22,2.38l3.76,13.86a23,23,0,0,0-1.21-2.38"/><path class="cls-82" d="M1065.37,468l-3.76-13.86a30.52,30.52,0,0,1,1.13,2.94l3.77,13.85a29.33,29.33,0,0,0-1.14-2.93"/><path class="cls-83" d="M1066.51,470.91l-3.77-13.85c.21.63.41,1.29.59,2l3.77,13.85c-.19-.68-.38-1.34-.59-2"/></g></g></g><path class="cls-76" d="M1069.11,491.26l-.18,127.09-44.32.86,0-17.82a31.62,31.62,0,0,1-12.42,14.71q-9,5.88-22.92,6.25-19.53.38-28.08-7.69t-8.5-25.56l0-22.94a43.24,43.24,0,0,1,1.4-11,35,35,0,0,1,11.55-17.88,54.33,54.33,0,0,1,9.08-6.05,89.41,89.41,0,0,1,9.77-4.56c3.26-1.3,6.81-2.67,10.65-4.07s5.86-2.15,6.09-2.15q12.26-4.26,17.48-9.59c3.55-3.48,5.23-8.55,5.25-15.06l0-10.09q0-13.1-14.27-12.83-14,.27-14,18.76l0,20.17-42.9.84,0-19.82q0-22.2,14.23-32.4t43.12-10.76l2,0a158.51,158.51,0,0,1,28.31,2,37.33,37.33,0,0,1,20.75,10.19Q1069.13,469.72,1069.11,491.26Zm-49.22,99.21a31.25,31.25,0,0,0,4-16.22l.07-42.35a11.87,11.87,0,0,1-1.78,1.21q-1.41.85-10.13,5.91a36.78,36.78,0,0,0-12.58,10.84,20.71,20.71,0,0,0-3.86,11.51l0,17.49c0,6.48.92,11.23,2.79,14.23s4.86,4.35,9.12,4.27h.34a1,1,0,0,0,.49.08,13.46,13.46,0,0,0,11.55-7"/></g><g class="cls-15"><g class="cls-15"><g class="cls-96"><g class="cls-15"><path class="cls-83" d="M1140.23,582.37l-3.76-13.86c.15.58.32,1.14.5,1.68l3.77,13.85c-.18-.53-.35-1.09-.51-1.67"/><path class="cls-82" d="M1140.74,584,1137,570.19a25.2,25.2,0,0,0,1,2.46l3.76,13.85c-.34-.77-.65-1.58-.94-2.46"/><path class="cls-81" d="M1141.68,586.5l-3.76-13.85a20.66,20.66,0,0,0,1,1.94l3.77,13.86c-.35-.61-.69-1.26-1-2"/><path class="cls-80" d="M1142.68,588.45l-3.77-13.86a16.13,16.13,0,0,0,1.11,1.67l3.77,13.85a16,16,0,0,1-1.11-1.66"/><path class="cls-79" d="M1143.79,590.11,1140,576.26a14.7,14.7,0,0,0,1.48,1.64l3.77,13.85a11.72,11.72,0,0,1-1.48-1.64"/><path class="cls-78" d="M1145.27,591.75l-3.77-13.85a11,11,0,0,0,4.59,2.61l3.77,13.85a11,11,0,0,1-4.59-2.61"/><path class="cls-79" d="M1149.86,594.36l-3.77-13.85a12.38,12.38,0,0,0,1.87.37l3.77,13.85a12.38,12.38,0,0,1-1.87-.37"/><path class="cls-80" d="M1151.73,594.73,1148,580.88a14.62,14.62,0,0,0,1.64.09l3.77,13.86a14.45,14.45,0,0,1-1.64-.1"/><path class="cls-81" d="M1153.37,594.83,1149.6,581h.33l3.77,13.85h-.33"/></g></g></g><g class="cls-15"><g class="cls-97"><g class="cls-15"><path class="cls-81" d="M1153.7,594.82,1149.93,581q.52,0,1-.06l3.77,13.86c-.34,0-.67.05-1,.05"/><path class="cls-82" d="M1154.72,594.77,1151,580.91c.37,0,.73-.09,1.09-.15l3.76,13.85c-.35.07-.71.12-1.08.16"/><path class="cls-83" d="M1155.8,594.61,1152,580.76c.32-.07.64-.14,1-.23l3.76,13.85a9.61,9.61,0,0,1-1,.23"/><path class="cls-84" d="M1156.76,594.38,1153,580.53a9.37,9.37,0,0,0,.89-.31l3.77,13.86q-.44.17-.9.3"/><path class="cls-85" d="M1157.66,594.08l-3.77-13.86a6.79,6.79,0,0,0,.87-.39l3.77,13.86q-.42.21-.87.39"/><path class="cls-86" d="M1158.53,593.69l-3.77-13.86a9.23,9.23,0,0,0,.91-.52l3.77,13.86c-.3.19-.6.36-.91.52"/><path class="cls-87" d="M1159.44,593.17l-3.77-13.86a9.61,9.61,0,0,0,1.1-.83l3.76,13.86a10.81,10.81,0,0,1-1.09.83"/><path class="cls-56" d="M1160.53,592.34l-3.76-13.86q6.13-5.31,6.17-22l3.77,13.86q0,16.67-6.18,22"/></g></g></g><polygon class="cls-49" points="1166.71 570.36 1162.94 556.5 1163.05 482.21 1166.82 496.06 1166.71 570.36"/><g class="cls-15"><g class="cls-98"><g class="cls-15"><path class="cls-56" d="M1166.82,496.06l-3.77-13.85a49.7,49.7,0,0,0-1.39-12.84l3.76,13.85a49.71,49.71,0,0,1,1.4,12.84"/></g></g></g><g class="cls-15"><g class="cls-99"><g class="cls-15"><path class="cls-81" d="M1169.33,447.3l-3.76-13.86h1.82l3.76,13.85-1.82,0"/><path class="cls-80" d="M1171.15,447.28l-3.76-13.85a69,69,0,0,1,8.08.45l3.77,13.86a71.27,71.27,0,0,0-8.09-.46"/><path class="cls-79" d="M1179.24,447.74l-3.77-13.86a51,51,0,0,1,7.7,1.48l3.77,13.85a51.3,51.3,0,0,0-7.7-1.47"/><path class="cls-78" d="M1186.94,449.21l-3.77-13.85a32.83,32.83,0,0,1,13.44,7.06l.45.41,3.77,13.86-.45-.42a32.83,32.83,0,0,0-13.44-7.06"/><path class="cls-79" d="M1200.83,456.69l-3.77-13.86a25,25,0,0,1,2.79,3.1l3.77,13.85a26.47,26.47,0,0,0-2.79-3.09"/><path class="cls-80" d="M1203.62,459.78l-3.77-13.85a27.71,27.71,0,0,1,1.89,2.82l3.76,13.86a28.35,28.35,0,0,0-1.88-2.83"/><path class="cls-81" d="M1205.5,462.61l-3.76-13.86a30.42,30.42,0,0,1,1.51,3l3.77,13.85a30.3,30.3,0,0,0-1.52-2.95"/><path class="cls-82" d="M1207,465.56l-3.77-13.85a33.63,33.63,0,0,1,1.29,3.32l3.77,13.86q-.58-1.74-1.29-3.33"/><path class="cls-83" d="M1208.31,468.89,1204.54,455c.22.68.43,1.38.63,2.09l3.76,13.85c-.19-.71-.4-1.4-.62-2.08"/></g></g></g><g class="cls-15"><g class="cls-100"><g class="cls-15"><path class="cls-56" d="M1138.59,464l-3.76-13.85a30.92,30.92,0,0,1,7-8.56l3.77,13.85a31.14,31.14,0,0,0-7,8.56"/><path class="cls-87" d="M1145.57,455.48l-3.77-13.85a30.36,30.36,0,0,1,3.4-2.54l3.76,13.85a31.19,31.19,0,0,0-3.39,2.54"/><path class="cls-86" d="M1149,452.94l-3.76-13.85c.38-.25.77-.5,1.16-.73l3.77,13.86q-.59.34-1.17.72"/></g></g></g><g class="cls-15"><g class="cls-101"><g class="cls-15"><path class="cls-86" d="M1150.13,452.22l-3.77-13.86c.51-.29,1-.56,1.55-.83l3.76,13.86c-.52.26-1,.54-1.54.83"/><path class="cls-85" d="M1151.67,451.39l-3.76-13.86c1.08-.55,2.2-1,3.33-1.49L1155,449.9c-1.14.44-2.25.94-3.34,1.49"/><path class="cls-84" d="M1155,449.9,1151.24,436c1.08-.42,2.18-.79,3.29-1.11l3.77,13.85a34.43,34.43,0,0,0-3.29,1.12"/><path class="cls-83" d="M1158.3,448.78l-3.77-13.85c1.1-.32,2.21-.59,3.34-.8l3.76,13.85c-1.12.22-2.23.48-3.33.8"/><path class="cls-82" d="M1161.63,448l-3.76-13.85a33.92,33.92,0,0,1,3.48-.51l3.77,13.85c-1.17.12-2.34.29-3.49.51"/><path class="cls-81" d="M1165.12,447.47l-3.77-13.85c1-.1,2-.15,3-.17h.8l3.76,13.85h-.8c-1,0-2,.08-3,.17"/><path class="cls-80" d="M1168.87,447.29l-3.76-13.85h.46l3.76,13.86h-.46"/></g></g></g><polygon class="cls-49" points="1094.28 656.84 1090.51 642.99 1090.82 437.57 1094.59 451.43 1094.28 656.84"/><path class="cls-76" d="M1210.75,486.53l-.12,77q0,27.91-9.64,41.17t-30.91,13.72l-1.35,0a40.66,40.66,0,0,1-18.53-4,27.81,27.81,0,0,1-11.81-11.24l-.08,52.8-44,.85.31-205.41,44-.86,0,13.47a31.31,31.31,0,0,1,11.54-11.82,37.85,37.85,0,0,1,17.94-4.92h1.26q20.61-.41,31.05,9T1210.75,486.53Zm-57,108.29c8.66-.16,13-8.32,13-24.46l.11-74.3q0-10.76-2.76-16.59c-1.88-3.88-5.47-5.77-10.82-5.67a15.63,15.63,0,0,0-10.13,4.06,12.44,12.44,0,0,0-4.55,9.67l-.12,78q0,29.58,15.26,29.29"/><polygon class="cls-69" points="1094.59 451.43 1090.82 437.57 1134.85 436.72 1138.62 450.57 1094.59 451.43"/></g><g class="cls-15"><g class="cls-15"><g class="cls-102"><g class="cls-15"><path class="cls-80" d="M1292.94,594.74l-3.77-13.85h.18l3.76,13.85h-.17"/><path class="cls-81" d="M1293.11,594.74l-3.76-13.85h.33c.42,0,.83,0,1.24-.08l3.77,13.86c-.41,0-.83.06-1.24.07h-.34"/><path class="cls-82" d="M1294.69,594.67l-3.77-13.86a11.94,11.94,0,0,0,1.46-.21l3.77,13.86c-.48.09-1,.16-1.46.21"/><path class="cls-83" d="M1296.15,594.46l-3.77-13.86c.48-.09.94-.2,1.4-.33l3.77,13.85c-.46.13-.93.25-1.4.34"/><path class="cls-84" d="M1297.55,594.12l-3.77-13.85c.47-.14.93-.3,1.38-.47l3.77,13.85a13.18,13.18,0,0,1-1.38.47"/><path class="cls-85" d="M1298.93,593.65l-3.77-13.85c.48-.19.95-.4,1.4-.63l3.77,13.86a14.53,14.53,0,0,1-1.4.62"/><path class="cls-86" d="M1300.33,593l-3.77-13.86a15.42,15.42,0,0,0,1.47-.84l3.76,13.85a16.33,16.33,0,0,1-1.46.85"/><path class="cls-87" d="M1301.79,592.18,1298,578.33a16.67,16.67,0,0,0,1.44-1.06l3.77,13.85a14.94,14.94,0,0,1-1.45,1.06"/></g></g></g><g class="cls-15"><g class="cls-103"><g class="cls-15"><path class="cls-56" d="M1303.24,591.12l-3.77-13.85c2.66-2.31,4-5.8,4-10.52l3.77,13.86c0,4.71-1.36,8.2-4,10.51"/></g></g></g><g class="cls-15"><g class="cls-104"><g class="cls-15"><path class="cls-83" d="M1280,584.93l-3.77-13.85c.1.36.2.71.32,1l3.77,13.86c-.12-.34-.22-.7-.32-1.06"/><path class="cls-82" d="M1280.31,586l-3.77-13.86a17.49,17.49,0,0,0,.63,1.64l3.77,13.85a17.28,17.28,0,0,1-.63-1.63"/><path class="cls-81" d="M1280.94,587.62l-3.77-13.85a14.15,14.15,0,0,0,.72,1.4l3.77,13.86a13.29,13.29,0,0,1-.72-1.41"/><path class="cls-80" d="M1281.66,589l-3.77-13.86a12,12,0,0,0,.86,1.29l3.76,13.85a12.92,12.92,0,0,1-.85-1.28"/><path class="cls-79" d="M1282.51,590.31l-3.76-13.85a11.36,11.36,0,0,0,1.22,1.36l3.77,13.85a10.71,10.71,0,0,1-1.23-1.36"/><path class="cls-78" d="M1283.74,591.67,1280,577.82a10.9,10.9,0,0,0,4.58,2.54l3.77,13.85a10.8,10.8,0,0,1-4.58-2.54"/><path class="cls-79" d="M1288.32,594.21l-3.77-13.85a14.24,14.24,0,0,0,2.16.42l3.77,13.85a14.24,14.24,0,0,1-2.16-.42"/><path class="cls-80" d="M1290.48,594.63l-3.77-13.85a19,19,0,0,0,2,.11l3.77,13.86a16.54,16.54,0,0,1-2-.12"/><path class="cls-81" d="M1292.51,594.75l-3.77-13.86h.43l3.77,13.85h-.43"/></g></g></g><polygon class="cls-49" points="1307.26 580.61 1303.49 566.75 1303.51 552.74 1307.28 566.59 1307.26 580.61"/><g class="cls-15"><g class="cls-105"><g class="cls-15"><path class="cls-56" d="M1307.28,566.59l-3.77-13.85a17.22,17.22,0,0,0-.59-5l3.77,13.86a17.12,17.12,0,0,1,.59,5"/></g></g></g><g class="cls-15"><g class="cls-106"><g class="cls-15"><path class="cls-56" d="M1237.15,588.7l-3.76-13.85a81.25,81.25,0,0,1-2.45-21.35l3.76,13.85a82,82,0,0,0,2.45,21.35"/></g></g></g><polygon class="cls-49" points="1234.7 567.35 1230.94 553.5 1230.95 541.39 1234.72 555.24 1234.7 567.35"/><polygon class="cls-69" points="1234.72 555.24 1230.95 541.39 1275.27 540.52 1279.03 554.38 1234.72 555.24"/><g class="cls-15"><g class="cls-107"><g class="cls-15"><path class="cls-78" d="M1297.26,512.16l-3.77-13.85a202.78,202.78,0,0,0,19.88,7.17q17.49,5.47,26.78,14.23l3.77,13.85q-9.29-8.74-26.78-14.22a202.84,202.84,0,0,1-19.88-7.18"/><path class="cls-79" d="M1343.92,533.56l-3.77-13.85a36.83,36.83,0,0,1,4,4.43l3.77,13.85a36.83,36.83,0,0,0-4-4.43"/><path class="cls-80" d="M1347.94,538l-3.77-13.85a32.73,32.73,0,0,1,2.24,3.32l3.76,13.86a32.22,32.22,0,0,0-2.23-3.33"/><path class="cls-81" d="M1350.17,541.32l-3.76-13.86a31.64,31.64,0,0,1,1.52,2.95l3.76,13.86a28.36,28.36,0,0,0-1.52-2.95"/><path class="cls-82" d="M1351.69,544.27l-3.76-13.86a29.33,29.33,0,0,1,1.11,2.87l3.77,13.85a29.22,29.22,0,0,0-1.12-2.86"/><path class="cls-83" d="M1352.81,547.13,1349,533.28c.18.52.34,1.06.48,1.6l3.77,13.85c-.15-.54-.31-1.07-.48-1.6"/></g></g></g><g class="cls-15"><g class="cls-108"><g class="cls-15"><path class="cls-78" d="M1290.28,507.42l-3.76-13.85a37.06,37.06,0,0,0,7,4.74l3.77,13.85a36.52,36.52,0,0,1-7-4.74"/></g></g></g><g class="cls-15"><g class="cls-109"><g class="cls-15"><path class="cls-83" d="M1285.58,500.2l-3.76-13.85c0,.2.11.4.17.6a2.41,2.41,0,0,0,.08.25l3.77,13.86-.09-.26c0-.2-.11-.4-.17-.6"/><path class="cls-82" d="M1285.84,501.06l-3.77-13.86c.14.43.31.85.49,1.26l3.77,13.86a11.32,11.32,0,0,1-.49-1.26"/><path class="cls-81" d="M1286.33,502.32l-3.77-13.86a12.26,12.26,0,0,0,.67,1.3l3.76,13.86c-.24-.42-.46-.86-.66-1.3"/><path class="cls-80" d="M1287,503.62l-3.76-13.86a12.94,12.94,0,0,0,.93,1.39l3.77,13.86a16.13,16.13,0,0,1-.94-1.39"/><path class="cls-79" d="M1287.93,505l-3.77-13.86a12.51,12.51,0,0,0,1.5,1.67l3.77,13.86a13.88,13.88,0,0,1-1.5-1.67"/><path class="cls-78" d="M1289.43,506.68l-3.77-13.86c.28.26.56.51.86.75l3.76,13.85c-.29-.24-.58-.48-.85-.74"/></g></g></g><polygon class="cls-49" points="1311.57 505.65 1307.81 491.8 1307.83 471.63 1311.6 485.48 1311.57 505.65"/><g class="cls-15"><g class="cls-110"><g class="cls-15"><path class="cls-56" d="M1240.69,511l-3.77-13.86a39,39,0,0,1-1.36-11.29l3.76,13.86a39.4,39.4,0,0,0,1.37,11.29"/></g></g></g><g class="cls-15"><g class="cls-111"><g class="cls-15"><path class="cls-56" d="M1311.6,485.48l-3.77-13.85a32.12,32.12,0,0,0-1-8.49l3.77,13.85a32.12,32.12,0,0,1,1,8.49"/></g></g></g><polygon class="cls-49" points="1239.33 499.7 1235.56 485.84 1235.57 477.1 1239.33 490.95 1239.33 499.7"/><g class="cls-15"><g class="cls-112"><g class="cls-15"><path class="cls-56" d="M1239.33,491l-3.77-13.86a54.17,54.17,0,0,1,4.77-23.85l3.77,13.85a54.19,54.19,0,0,0-4.77,23.86"/></g></g></g><g class="cls-15"><g class="cls-113"><g class="cls-15"><path class="cls-81" d="M1297.6,444.75l-3.77-13.86h.54c1.07,0,2.13,0,3.18,0l3.76,13.85-3.17,0h-.54"/><path class="cls-80" d="M1301.31,444.71l-3.76-13.85a113.93,113.93,0,0,1,13.25.73l3.77,13.85a116.22,116.22,0,0,0-13.26-.73"/><path class="cls-79" d="M1314.57,445.44l-3.77-13.85a76.34,76.34,0,0,1,11.35,2.15l3.76,13.86a74.67,74.67,0,0,0-11.34-2.16"/><path class="cls-78" d="M1325.91,447.6l-3.76-13.86a43.41,43.41,0,0,1,14.93,7.07,23.71,23.71,0,0,1,2.17,1.84L1343,456.5a25.41,25.41,0,0,0-2.17-1.84,43.45,43.45,0,0,0-14.94-7.06"/><path class="cls-79" d="M1343,456.5l-3.77-13.85a27.89,27.89,0,0,1,3.07,3.41l3.76,13.85a27.74,27.74,0,0,0-3.06-3.41"/><path class="cls-80" d="M1346.08,459.91l-3.76-13.85a32.39,32.39,0,0,1,2.14,3.2l3.76,13.85a30.2,30.2,0,0,0-2.14-3.2"/><path class="cls-81" d="M1348.22,463.11l-3.76-13.85a35.74,35.74,0,0,1,1.76,3.44l3.77,13.85a34.71,34.71,0,0,0-1.77-3.44"/><path class="cls-82" d="M1350,466.55l-3.77-13.85c.56,1.26,1.07,2.58,1.53,4l3.77,13.85c-.46-1.39-1-2.71-1.53-4"/><path class="cls-83" d="M1351.52,470.52l-3.77-13.85c.28.82.53,1.67.77,2.53l3.76,13.86c-.23-.87-.49-1.72-.76-2.54"/></g></g></g><path class="cls-76" d="M1297.6,444.75h.54q29-.57,42.71,9.92T1354.59,493l0,11.77-43,.84,0-20.17q0-18.14-13.23-17.89-13.61.29-13.63,13.71l0,12.79a24.91,24.91,0,0,0,1,6.71,13.73,13.73,0,0,0,4.53,6.62,36.52,36.52,0,0,0,7,4.74,202.84,202.84,0,0,0,19.88,7.18q37.33,11.68,37.29,38.27l0,12.1q0,14.77-4.74,24.8T1332,611q-12.93,6.48-38.76,7-30,.57-44.29-10.23t-14.26-40.4l0-12.11,44.31-.86,0,21.85q0,18.78,13.94,18.51h.51a15.91,15.91,0,0,0,9.79-3.62c2.66-2.31,4-5.8,4-10.51l0-14a17.15,17.15,0,0,0-5.21-12.84q-5.31-5-18.14-10.06T1266.49,537a51.7,51.7,0,0,1-9.58-5,48.26,48.26,0,0,1-8.71-7.05,31.84,31.84,0,0,1-6.27-10.12,39.35,39.35,0,0,1-2.61-15.07V491a54.19,54.19,0,0,1,4.77-23.86q4.76-9.68,17-15.8T1297.6,444.75Z"/><g class="cls-15"><g class="cls-114"><g class="cls-15"><path class="cls-56" d="M1244.1,467.09l-3.77-13.85a30.59,30.59,0,0,1,7.71-9.77l3.77,13.86a30.55,30.55,0,0,0-7.71,9.76"/><path class="cls-87" d="M1251.81,457.33,1248,443.47a39,39,0,0,1,4.35-3.24l3.76,13.85a41.22,41.22,0,0,0-4.34,3.25"/><path class="cls-86" d="M1256.15,454.08l-3.76-13.85a50.75,50.75,0,0,1,4.74-2.72l3.76,13.86a53.42,53.42,0,0,0-4.74,2.71"/><path class="cls-85" d="M1260.89,451.37l-3.76-13.86.15-.08c1-.52,2.16-1,3.34-1.48l3.77,13.86c-1.18.46-2.29.95-3.34,1.48l-.16.08"/><path class="cls-84" d="M1264.39,449.81,1260.62,436c1.39-.54,2.88-1,4.46-1.49l3.76,13.85c-1.58.46-3.06,1-4.45,1.5"/><path class="cls-83" d="M1268.84,448.31l-3.76-13.85q2.89-.84,6.23-1.48l3.77,13.85q-3.33.65-6.24,1.48"/><path class="cls-82" d="M1275.08,446.83,1271.31,433c3-.58,6.2-1,9.67-1.37l3.77,13.85q-5.22.51-9.67,1.37"/><path class="cls-81" d="M1284.75,445.46,1281,431.61q5.94-.58,12.85-.72l3.77,13.86q-6.93.13-12.85.71"/></g></g></g></g></g><path class="cls-115" d="M1068.63,97.5H994c-.42,0-.84,0-1.26,0-2.51-.06-2.51-.07-2.51,2.38,0,3.83,0,7.66,0,11.49,0,1.35.48,2,1.84,1.85.62,0,1.26,0,1.89,0q42.63,0,85.28,0a2.59,2.59,0,0,1,2.68,1.57,77,77,0,0,1,9.55,39.07c-.76,36.51-27.34,67.86-63.38,74.09-25.6,4.43-48.23-2.38-67.18-20.26-13.9-13.11-21.68-29.45-23.43-48.44a76.82,76.82,0,0,1,62.09-82.89c25.64-4.77,48.22,2,67.58,19.45.39.34.76.73,1.12,1.1A6.32,6.32,0,0,1,1068.63,97.5Zm-66.87,50.9c3.25,0,6.51-.05,9.76,0,1.22,0,1.69-.34,1.63-1.61-.15-3.29-.13-6.6-.31-9.9-.38-7.22-3.38-12.8-10.32-15.71a41.26,41.26,0,0,0-31.09-.55,16.93,16.93,0,0,0-11.27,13.47,49.88,49.88,0,0,0-.44,16.58c1,7,4.2,12.65,10.15,16.64,2.61,1.75,5.18,3.56,7.77,5.34a122.52,122.52,0,0,1,10.69,7.74,9.2,9.2,0,0,1,3.25,5.74,49.24,49.24,0,0,1,.17,9.71,4.93,4.93,0,0,1-1.1,2.74,4.31,4.31,0,0,1-4.14,1.75,3.25,3.25,0,0,1-3.06-2.11,17.11,17.11,0,0,1-.81-4.79c0-3.77,0-7.55,0-11.33,0-1.23-.41-1.64-1.64-1.63q-9.67.06-19.36,0c-1.22,0-1.63.39-1.67,1.62a85.83,85.83,0,0,0,.69,14c.61,4.39,1.46,8.69,4.74,12a23,23,0,0,0,8.89,5.77,37.79,37.79,0,0,0,20.22,1.8,35.76,35.76,0,0,0,13-4.84,14.35,14.35,0,0,0,6.48-9.11,56.28,56.28,0,0,0,.22-22.76c-.89-4.75-2.56-9-6.21-12.4-5.15-4.79-11-8.47-17-12.13a45.53,45.53,0,0,1-5.68-3.93,7.6,7.6,0,0,1-2.55-3.88,18.72,18.72,0,0,1-.12-9.77,4.4,4.4,0,0,1,4.34-3.21c2,.22,3.13,1.62,3.31,4,.22,2.88.22,5.76.17,8.64,0,2.14-.07,2.14,2.13,2.14Zm35.66,6.17q0-16.68,0-33.34c0-1.14,0-2.17-1.61-2-4.65.43-9.32.12-14,.13-2.09,0-2.1,0-2.1,2.09q0,22,0,44c0,7.54,0,15.09-.11,22.64,0,1.33.52,1.73,1.76,1.72,4.61,0,9.22,0,13.83,0,2.11,0,2.2-.11,2.2-2.23Z"/></g></g></svg>